<svg width="40" height="41" viewBox="0 0 40 41" fill="none" xmlns="http://www.w3.org/2000/svg">
<rect y="0.5" width="40" height="40" rx="20" fill="#0D0D12"/>
<g clip-path="url(#clip0_4626_65227)">
<path fill-rule="evenodd" clip-rule="evenodd" d="M23.0868 15.2067C23.2624 14.7961 23.3598 14.343 23.3598 13.8668C23.3598 12.0074 21.8749 10.5 20.0432 10.5C18.2116 10.5 16.7267 12.0074 16.7267 13.8668C16.7267 14.343 16.8241 14.7961 16.9997 15.2067C16.3969 14.3643 15.4188 13.8166 14.3146 13.8166C12.4829 13.8166 10.998 15.324 10.998 17.1834C10.998 18.8441 12.1825 20.224 13.7406 20.5C12.1825 20.776 10.998 22.1559 10.998 23.8166C10.998 25.676 12.4829 27.1834 14.3146 27.1834C15.4188 27.1834 16.3969 26.6357 16.9997 25.7933C16.8241 26.2039 16.7267 26.657 16.7267 27.1332C16.7267 28.9926 18.2116 30.5 20.0432 30.5C21.8749 30.5 23.3598 28.9926 23.3598 27.1332C23.3598 26.657 23.2624 26.2039 23.0868 25.7933C23.6896 26.6357 24.6677 27.1834 25.7719 27.1834C27.6036 27.1834 29.0885 25.676 29.0885 23.8166C29.0885 22.1559 27.904 20.776 26.3459 20.5C27.904 20.224 29.0885 18.8441 29.0885 17.1834C29.0885 15.324 27.6036 13.8166 25.7719 13.8166C24.6677 13.8166 23.6896 14.3643 23.0868 15.2067ZM22.7283 25.1565C22.5527 24.7459 22.4553 24.2928 22.4553 23.8166C22.4553 22.1559 23.6397 20.776 25.1978 20.5C23.6397 20.224 22.4553 18.8441 22.4553 17.1834C22.4553 16.7072 22.5527 16.2541 22.7283 15.8435C22.1255 16.6859 21.1474 17.2337 20.0432 17.2337C18.9391 17.2337 17.961 16.6859 17.3582 15.8435C17.5338 16.2541 17.6312 16.7072 17.6312 17.1834C17.6312 18.8441 16.4468 20.224 14.8887 20.5C16.4468 20.776 17.6312 22.1559 17.6312 23.8166C17.6312 24.2928 17.5338 24.7459 17.3582 25.1565C17.961 24.3141 18.9391 23.7663 20.0432 23.7663C21.1474 23.7663 22.1255 24.3141 22.7283 25.1565Z" fill="#F8FAFB"/>
</g>
<defs>
<clipPath id="clip0_4626_65227">
<rect width="20" height="20" fill="white" transform="translate(10 10.5)"/>
</clipPath>
</defs>
</svg>
