<svg width="111" height="40" viewBox="0 0 111 40" fill="none" xmlns="http://www.w3.org/2000/svg">
<path fill-rule="evenodd" clip-rule="evenodd" d="M0.452148 5.06738H12.6175L0.452148 34.1611V5.06738ZM33.3265 5.06738H21.177L33.3265 34.1611V5.06738ZM16.8973 15.7903L24.6403 34.1612H19.5602L17.246 28.3123H11.5795L16.8973 15.7903ZM54.6075 27.6824L53.173 23.5692H47.2845L45.9293 27.6348C45.8738 27.7854 45.8025 27.833 45.6519 27.833H43.1871C43.0445 27.833 42.989 27.7617 43.0128 27.5873L48.0929 13.1395C48.1959 12.8938 48.2672 12.6402 48.3148 11.808C48.3148 11.705 48.3703 11.6337 48.4654 11.6337H51.8891C52.0159 11.6337 52.0397 11.6574 52.0634 11.7843L57.7617 27.6111C57.7855 27.7616 57.7617 27.833 57.6112 27.833H54.8532C54.7263 27.833 54.655 27.7854 54.6075 27.6824ZM48.3771 19.9549C48.2715 20.2724 48.1682 20.5831 48.0691 20.8825H52.3884C52.234 20.4004 52.0242 19.7623 51.7927 19.0577C51.2401 17.3761 50.5631 15.3158 50.2169 14.0984H50.1931C49.8495 15.5275 49.0652 17.8861 48.3771 19.9549ZM65.0874 28.0786C66.5694 28.0786 68.1466 27.8092 69.7475 27.1197C69.8743 27.0721 69.8981 27.0166 69.8981 26.8978C69.8505 26.4539 69.795 25.812 69.795 25.3206V10.4211C69.795 10.326 69.795 10.2784 69.6762 10.2784H66.9895C66.8865 10.2784 66.8389 10.326 66.8389 10.4528V15.5012C66.4189 15.4536 66.1256 15.4299 65.7769 15.4299C61.4418 15.4299 58.7789 18.2909 58.7789 21.8652C58.7789 26.0101 61.5131 28.0786 65.0874 28.0786ZM66.8389 25.3206C66.3951 25.4633 65.9037 25.5188 65.4044 25.5188C63.4389 25.5188 61.8301 24.4092 61.8301 21.7146C61.8301 19.3291 63.4865 17.9184 65.6818 17.9184C66.1256 17.9184 66.514 17.966 66.8389 18.0928V25.3206ZM72.4774 21.7701C72.4774 18.2672 74.7678 15.4299 78.469 15.4299C82.2652 15.4299 84.3337 18.3147 84.3337 21.6909C84.3337 25.5188 81.8927 28.0787 78.4135 28.0787C74.3003 28.0787 72.4774 24.9006 72.4774 21.7701ZM81.2983 21.7701C81.2983 19.7175 80.4107 17.9184 78.3184 17.9184C76.662 17.9184 75.4811 19.3767 75.4811 21.7147C75.4811 23.9892 76.5907 25.5664 78.469 25.5664C79.9906 25.5664 81.2983 24.3062 81.2983 21.7701ZM87.1114 10.2784C87.0084 10.2784 86.937 10.326 86.937 10.4528V27.3178C86.937 27.3891 87.0084 27.5159 87.1114 27.5397C88.2923 27.9043 89.5286 28.0786 90.8046 28.0786C94.4581 28.0786 98.0087 25.812 98.0087 21.247C98.0087 17.9422 95.742 15.4299 92.1915 15.4299C91.3752 15.4299 90.6144 15.5567 89.9487 15.7786L89.917 10.4766C89.917 10.3022 89.8694 10.2784 89.695 10.2784H87.1114ZM94.9733 21.5482C94.9733 24.2824 93.1029 25.5663 91.082 25.5663C90.6619 25.5663 90.2894 25.5425 89.9487 25.4395V18.2433C90.337 18.0928 90.8046 17.966 91.6684 17.966C93.6181 17.966 94.9733 19.2023 94.9733 21.5482ZM110.571 22.3328C110.231 22.4121 109.24 22.4359 108.035 22.4359H103.026C103.098 24.1557 104.239 25.5426 106.751 25.5426C107.861 25.5426 108.875 25.3444 109.81 24.9482C109.882 24.9006 109.953 24.9244 109.953 25.0433V27.0959C109.953 27.2386 109.906 27.3178 109.81 27.3654C108.875 27.8092 107.79 28.0787 106.109 28.0787C101.624 28.0787 100.023 24.9244 100.023 21.889C100.023 18.4653 102.091 15.4299 105.816 15.4299C109.462 15.4299 110.872 18.2909 110.872 20.6368C110.872 21.3263 110.841 21.889 110.769 22.1585C110.746 22.2615 110.698 22.3091 110.571 22.3328ZM105.689 17.7996C103.985 17.7996 103.225 19.1072 103.026 20.3119H106.704C107.639 20.3119 107.956 20.3119 108.059 20.2881V20.09C108.059 19.3767 107.568 17.7996 105.689 17.7996Z" fill="#818898"/>
</svg>
