<svg width="129" height="40" viewBox="0 0 129 40" fill="none" xmlns="http://www.w3.org/2000/svg">
<g clip-path="url(#clip0_615_70167)">
<path fill-rule="evenodd" clip-rule="evenodd" d="M15.4917 7.20141L3.09125 12.1832C2.40167 12.4602 2.40881 13.4114 3.10271 13.6784L15.5548 18.4727C16.6489 18.894 17.8673 18.894 18.9614 18.4727L31.4137 13.6783C32.1074 13.4114 32.115 12.4604 31.425 12.1833L19.0249 7.20123C17.8936 6.74673 16.623 6.74691 15.4917 7.20141ZM51.9354 22.4117L49.7101 16.5876C49.6193 16.3494 49.2722 16.3494 49.1812 16.5876L46.9563 22.4121C46.9405 22.4535 46.9352 22.498 46.941 22.5418C46.9467 22.5856 46.9633 22.6274 46.9893 22.6636C47.0153 22.6998 47.0499 22.7294 47.0902 22.7499C47.1305 22.7703 47.1753 22.781 47.2208 22.781H51.6709C51.7164 22.781 51.7612 22.7703 51.8015 22.7498C51.8418 22.7294 51.8764 22.6997 51.9024 22.6635C51.9284 22.6272 51.9449 22.5854 51.9506 22.5416C51.9563 22.4978 51.9513 22.4531 51.9354 22.4117ZM52.963 25.6854H45.9285C45.8709 25.6854 45.8147 25.7025 45.7675 25.7344C45.7202 25.7663 45.6842 25.8115 45.6641 25.8639L44.2792 29.4878C44.2591 29.5402 44.2231 29.5854 44.1758 29.6173C44.1286 29.6492 44.0724 29.6663 44.0148 29.6663H40.9657C40.9196 29.6663 40.8742 29.6553 40.8335 29.6343C40.7928 29.6133 40.758 29.583 40.7322 29.5459C40.7063 29.5088 40.6903 29.4662 40.6853 29.4217C40.6804 29.3772 40.6868 29.3322 40.704 29.2907L47.7241 12.3115C47.7451 12.2608 47.7812 12.2173 47.8279 12.1868C47.8746 12.1562 47.9296 12.1399 47.9859 12.1399H50.9056C51.0206 12.1399 51.1242 12.2078 51.1673 12.3115L58.1872 29.2905C58.2044 29.332 58.2108 29.3771 58.206 29.4216C58.2011 29.4662 58.185 29.5089 58.1592 29.546C58.1334 29.5831 58.0985 29.6135 58.0578 29.6345C58.017 29.6555 57.9716 29.6665 57.9255 29.6665H54.8769C54.8193 29.6665 54.7631 29.6493 54.7158 29.6174C54.6686 29.5854 54.6325 29.5402 54.6125 29.4878L53.2274 25.8639C53.2073 25.8115 53.1713 25.7663 53.124 25.7344C53.0768 25.7025 53.0206 25.6854 52.963 25.6854ZM59.6158 18.0987H62.2237C62.2985 18.0987 62.3702 18.1276 62.4231 18.1789C62.476 18.2303 62.5057 18.2999 62.5057 18.3725V29.3925C62.5057 29.4651 62.476 29.5348 62.4231 29.5861C62.3702 29.6375 62.2985 29.6663 62.2237 29.6663H59.6158C59.541 29.6663 59.4692 29.6375 59.4164 29.5861C59.3635 29.5348 59.3338 29.4651 59.3338 29.3925V18.3724C59.3338 18.2997 59.3635 18.2301 59.4164 18.1788C59.4692 18.1274 59.541 18.0987 59.6158 18.0987ZM72.0169 20.7794C72.0169 20.852 71.9872 20.9216 71.9343 20.973C71.8815 21.0243 71.8097 21.0531 71.7349 21.0531H71.656C70.3665 21.0531 69.4207 21.3536 68.8191 21.9545C68.2171 22.5554 67.9167 23.5487 67.9167 24.9341V29.3925C67.9167 29.4651 67.887 29.5348 67.8341 29.5861C67.7812 29.6375 67.7095 29.6663 67.6347 29.6663H65.0523C64.9775 29.6663 64.9058 29.6375 64.8529 29.5861C64.8 29.5348 64.7703 29.4651 64.7703 29.3925V18.3724C64.7703 18.2997 64.8 18.2301 64.8529 18.1788C64.9058 18.1274 64.9775 18.0986 65.0523 18.0986H67.6087C67.6835 18.0986 67.7552 18.1274 67.8081 18.1788C67.861 18.2301 67.8907 18.2997 67.8907 18.3724V20.5521H67.9424C68.2519 19.6508 68.7418 18.9585 69.4126 18.474C70.0828 17.9901 70.9081 17.7479 71.888 17.7479H72.0169V20.7794ZM79.1477 20.6775C79.073 20.6775 79.0012 20.7064 78.9483 20.7577C78.8955 20.809 78.8657 20.8787 78.8657 20.9513V25.535C78.8657 26.0024 78.9597 26.3363 79.1492 26.5365C79.3382 26.7367 79.6649 26.8369 80.1291 26.8369H80.3887C80.4635 26.8369 80.5352 26.8658 80.5881 26.9171C80.641 26.9685 80.6707 27.0381 80.6707 27.1107V29.4173C80.6707 29.4899 80.641 29.5596 80.5881 29.6109C80.5352 29.6623 80.4635 29.6911 80.3887 29.6911H79.278C78.1262 29.6911 77.2409 29.4033 76.622 28.8274C76.0029 28.2515 75.6935 27.3964 75.6935 26.261V20.9513C75.6935 20.8787 75.6637 20.809 75.6108 20.7577C75.558 20.7064 75.4862 20.6775 75.4114 20.6775H73.7836C73.7088 20.6775 73.637 20.6487 73.5842 20.5973C73.5313 20.546 73.5016 20.4763 73.5016 20.4037V18.3724C73.5016 18.2997 73.5313 18.2301 73.5842 18.1788C73.637 18.1274 73.7088 18.0986 73.7836 18.0986H75.4116C75.4864 18.0986 75.5582 18.0697 75.611 18.0184C75.6639 17.967 75.6936 17.8974 75.6936 17.8248V13.7403C75.6936 13.6677 75.7233 13.5981 75.7762 13.5467C75.8291 13.4954 75.9008 13.4665 75.9756 13.4665H78.5836C78.6584 13.4665 78.7301 13.4954 78.783 13.5467C78.8358 13.5981 78.8656 13.6677 78.8656 13.7403V17.8248C78.8656 17.8974 78.8953 17.967 78.9482 18.0184C79.001 18.0697 79.0728 18.0986 79.1476 18.0986H81.0334C81.1082 18.0986 81.1799 18.1274 81.2328 18.1788C81.2857 18.2301 81.3154 18.2997 81.3154 18.3724V20.4039C81.3154 20.4765 81.2857 20.5462 81.2328 20.5975C81.1799 20.6488 81.1082 20.6777 81.0334 20.6777L79.1477 20.6775ZM91.0896 26.236C91.6828 25.6352 91.9792 24.8507 91.9792 23.8823C91.9792 22.9146 91.6828 22.1297 91.0896 21.5288C90.4965 20.9279 89.7184 20.6275 88.7556 20.6275C87.7927 20.6275 87.0151 20.9279 86.4218 21.5288C85.8289 22.1297 85.5322 22.9146 85.5322 23.8823C85.5322 24.8507 85.8289 25.6352 86.4218 26.236C87.0151 26.8369 87.7927 27.1374 88.7556 27.1374C89.7184 27.1374 90.4965 26.8369 91.0896 26.236ZM85.068 29.3157C84.1912 28.8318 83.499 28.1263 82.9921 27.2C82.4847 26.2736 82.2313 25.1679 82.2313 23.8823C82.2313 22.5973 82.4847 21.4912 82.9921 20.5649C83.499 19.6386 84.1912 18.9336 85.068 18.4492C85.9449 17.9651 86.9074 17.7231 87.9563 17.7231C88.8846 17.7231 89.6796 17.8983 90.342 18.2488C91.0033 18.5992 91.532 19.0919 91.9277 19.7262H91.9792V18.3724C91.9792 18.2997 92.009 18.2301 92.0618 18.1788C92.1147 18.1274 92.1865 18.0986 92.2613 18.0986H94.8434C94.9182 18.0986 94.9899 18.1274 95.0428 18.1788C95.0957 18.2301 95.1254 18.2997 95.1254 18.3724V29.3923C95.1254 29.4649 95.0957 29.5346 95.0428 29.5859C94.9899 29.6373 94.9182 29.6661 94.8434 29.6661H92.2613C92.1865 29.6661 92.1147 29.6373 92.0618 29.5859C92.009 29.5346 91.9792 29.4649 91.9792 29.3923V28.0387H91.9277C91.532 28.6733 91.0033 29.1654 90.3418 29.5159C89.6796 29.8664 88.8848 30.0416 87.9563 30.0416C86.9074 30.0416 85.9449 29.7995 85.068 29.3157ZM105.864 26.236C106.458 25.6352 106.754 24.8507 106.754 23.8823C106.754 22.9146 106.458 22.1297 105.864 21.5288C105.272 20.9279 104.493 20.6275 103.531 20.6275C102.568 20.6275 101.79 20.9279 101.197 21.5288C100.604 22.1297 100.307 22.9146 100.307 23.8823C100.307 24.8507 100.604 25.6352 101.197 26.236C101.79 26.8369 102.568 27.1374 103.531 27.1374C104.493 27.1374 105.272 26.8369 105.864 26.236ZM101.945 29.5159C101.283 29.1654 100.754 28.6733 100.359 28.0387H100.307V29.3923C100.307 29.4649 100.277 29.5346 100.224 29.5859C100.172 29.6373 100.1 29.6661 100.025 29.6661H97.4171C97.3423 29.6661 97.2706 29.6373 97.2177 29.5859C97.1648 29.5346 97.1351 29.4649 97.1351 29.3923V12.4132C97.1351 12.3406 97.1648 12.2709 97.2177 12.2196C97.2706 12.1682 97.3423 12.1394 97.4171 12.1394H100.025C100.1 12.1394 100.172 12.1682 100.224 12.2196C100.277 12.2709 100.307 12.3406 100.307 12.4132V19.726H100.359C100.754 19.0917 101.283 18.5992 101.945 18.2488C102.606 17.8981 103.402 17.7229 104.33 17.7229C105.379 17.7229 106.342 17.965 107.218 18.449C108.095 18.9334 108.787 19.6384 109.294 20.5645C109.801 21.4914 110.055 22.5975 110.055 23.8825C110.055 25.1681 109.801 26.2736 109.295 27.2002C108.787 28.1265 108.095 28.832 107.219 29.3157C106.342 29.7997 105.379 30.0419 104.33 30.0419C103.402 30.0419 102.606 29.8665 101.945 29.5159ZM114.449 29.6663H111.841C111.767 29.6663 111.695 29.6375 111.642 29.5861C111.589 29.5348 111.559 29.4651 111.559 29.3925V12.4137C111.559 12.3411 111.589 12.2715 111.642 12.2201C111.695 12.1688 111.767 12.1399 111.841 12.1399H114.449C114.524 12.1399 114.596 12.1688 114.649 12.2201C114.702 12.2715 114.731 12.3411 114.731 12.4137V29.3925C114.731 29.4651 114.702 29.5348 114.649 29.5861C114.596 29.6375 114.524 29.6663 114.449 29.6663ZM120.601 20.7779C120.169 21.1054 119.877 21.5781 119.725 22.1965C119.684 22.367 119.821 22.5305 120.001 22.5305H124.965C125.137 22.5305 125.272 22.3809 125.244 22.2159C125.145 21.6309 124.887 21.1645 124.469 20.8155C123.979 20.4066 123.339 20.2022 122.548 20.2022C121.757 20.2022 121.108 20.394 120.601 20.7779ZM126.958 19.3381C127.972 20.415 128.479 21.9382 128.479 23.9075V24.2346C128.479 24.3072 128.45 24.3769 128.397 24.4282C128.344 24.4796 128.272 24.5084 128.197 24.5084H119.906C119.864 24.5085 119.824 24.5173 119.786 24.5343C119.749 24.5513 119.716 24.576 119.689 24.6066C119.663 24.6373 119.643 24.6733 119.632 24.712C119.622 24.7507 119.62 24.7912 119.627 24.8308C119.759 25.5623 120.092 26.1435 120.627 26.5741C121.237 27.0669 122.006 27.3128 122.935 27.3128C124.133 27.3128 125.243 26.8586 126.263 25.9502C126.387 25.8392 126.585 25.8628 126.682 25.9977L127.95 27.7645C127.989 27.8195 128.007 27.8867 127.999 27.9534C127.991 28.0201 127.958 28.0816 127.906 28.1263C127.284 28.6552 126.592 29.1015 125.849 29.4535C125.023 29.8455 124.052 30.0419 122.935 30.0419C121.646 30.0419 120.519 29.7871 119.556 29.2782C118.593 28.7694 117.846 28.0517 117.313 27.125C116.78 26.1986 116.514 25.1263 116.514 23.9075C116.514 22.6893 116.771 21.6128 117.287 20.6777C117.803 19.7431 118.525 19.017 119.453 18.4994C120.382 17.9823 121.465 17.7233 122.703 17.7233C124.525 17.7233 125.943 18.2617 126.958 19.3381ZM62.8463 14.0247C62.8463 15.0575 61.984 15.8947 60.9201 15.8947C59.856 15.8947 58.9937 15.0575 58.9937 14.0245C58.9937 12.9916 59.8562 12.1543 60.9201 12.1543C61.984 12.1543 62.8463 12.9918 62.8463 14.0247ZM18.363 33.0676V21.0908C18.363 20.9292 18.413 20.7713 18.5065 20.6376C18.6 20.5039 18.7328 20.4006 18.8875 20.341L32.763 15.1119C33.3084 14.902 33.9 15.2921 33.9 15.8617V27.8385C33.9 28.0001 33.8501 28.158 33.7565 28.2917C33.663 28.4254 33.5302 28.5288 33.3755 28.5883L19.5 33.8174C18.9546 34.0273 18.363 33.637 18.363 33.0676ZM11.0048 23.639L10.5867 23.8353L1.89398 27.8792C1.34314 28.1373 0.639648 27.7474 0.639648 27.1531V15.9119C0.639648 15.6969 0.7532 15.5112 0.90548 15.3716C0.905442 15.3716 0.905517 15.3716 0.90548 15.3716C0.960145 15.3188 1.02126 15.2726 1.08739 15.2343C1.09373 15.2306 1.10012 15.227 1.10656 15.2234C1.10971 15.2217 1.11287 15.22 1.11604 15.2183C1.19387 15.1729 1.28418 15.14 1.37995 15.1217C1.51252 15.0963 1.65556 15.099 1.79044 15.1353C1.81796 15.1427 1.84514 15.1514 1.87182 15.1617L15.0536 20.2327C15.7236 20.4908 15.7763 21.4023 15.1228 21.7088C15.1228 21.7088 15.1228 21.7088 15.1228 21.7088L11.0048 23.639Z" fill="#818898"/>
</g>
<defs>
<clipPath id="clip0_615_70167">
<rect width="128" height="40" fill="white" transform="translate(0.5)"/>
</clipPath>
</defs>
</svg>
