<svg width="106" height="40" viewBox="0 0 106 40" fill="none" xmlns="http://www.w3.org/2000/svg">
<path fill-rule="evenodd" clip-rule="evenodd" d="M13.6047 25.7213C13.6047 23.0302 15.7861 20.8488 18.4769 20.8488C21.1678 20.8488 23.3492 23.0302 23.3492 25.7213C23.3492 28.4121 21.1678 30.5935 18.4769 30.5935C15.7861 30.5935 13.6047 28.4121 13.6047 25.7213ZM0.946228 25.7213C0.946228 23.0302 3.12763 20.8493 5.81847 20.8493C8.50942 20.8493 10.6909 23.0302 10.6909 25.7213C10.6909 28.4121 8.50942 30.5935 5.81847 30.5935C3.12763 30.5935 0.946228 28.4121 0.946228 25.7213ZM12.1477 19.631C14.8386 19.631 17.0199 17.4494 17.0199 14.7584C17.0199 12.0678 14.8386 9.88623 12.1477 9.88623C9.45677 9.88623 7.27548 12.0678 7.27548 14.7584C7.27548 17.4494 9.45677 19.631 12.1477 19.631ZM47.4745 23.8176C48.6868 24.6581 50.0101 25.0664 51.2817 25.0664C52.4932 25.0664 53.7456 24.4378 53.7456 23.3438C53.7456 22.2361 52.1758 21.8377 50.6693 21.4555C50.1895 21.3338 49.7161 21.2137 49.3019 21.0728C47.5869 20.4896 46.1099 19.2839 46.1099 17.3315C46.1099 14.344 48.7698 13.1102 51.2524 13.1102C52.8253 13.1102 54.4482 13.6293 55.5004 14.3729C55.8628 14.6476 55.6421 14.9631 55.6421 14.9631L54.6377 16.3987C54.5248 16.5604 54.3274 16.7001 54.0441 16.5251C54.0245 16.513 54.0014 16.4983 53.9749 16.4815C53.6203 16.2559 52.6618 15.6462 51.2524 15.6462C49.7376 15.6462 48.8252 16.3463 48.8252 17.214C48.8252 18.2545 50.0111 18.5817 51.4 18.9363C53.8205 19.5893 56.461 20.3742 56.461 23.3438C56.461 25.976 54.0008 27.6027 51.2817 27.6027C49.2213 27.6027 47.467 27.0149 45.9956 25.9344C45.6891 25.6274 45.9032 25.3423 45.9032 25.3423L46.9027 23.914C47.106 23.6469 47.3624 23.7401 47.4745 23.8176ZM71.7228 27.3064C70.7212 27.3064 70.143 26.3864 70.0795 25.6636L70.0793 25.662C69.1297 26.9195 67.2125 27.6022 65.4534 27.6022C61.4549 27.6022 58.2136 24.3581 58.2136 20.3561C58.2136 16.3543 61.4549 13.1104 65.4534 13.1104C67.2125 13.1104 68.9668 13.6796 70.0795 15.0511V14.0038H70.0816C70.0938 13.7866 70.2732 13.6127 70.4928 13.6127H72.3088C72.5282 13.6127 72.7078 13.7866 72.7197 14.0038H72.722V26.8929C72.722 27.1202 72.536 27.3064 72.3088 27.3064H71.7228ZM60.8559 20.3561C60.8559 22.9577 62.9176 25.0662 65.4605 25.0662C68.0036 25.0662 70.0649 22.9577 70.0649 20.3561C70.0649 17.7551 68.0036 15.6464 65.4605 15.6464C62.9176 15.6464 60.8559 17.7551 60.8559 20.3561ZM103.154 25.6636C103.217 26.3864 103.795 27.3065 104.798 27.3065H105.383C105.611 27.3065 105.797 27.1203 105.797 26.8929V14.0038H105.794C105.783 13.7866 105.603 13.6127 105.383 13.6127H103.568C103.348 13.6127 103.168 13.7866 103.157 14.0038H103.154V15.0511C102.041 13.6796 100.287 13.1104 98.5282 13.1104C94.5295 13.1104 91.2882 16.3543 91.2882 20.3561C91.2882 24.3582 94.5295 27.6021 98.5282 27.6021C100.287 27.6021 102.205 26.9195 103.154 25.662V25.6636ZM98.5349 25.0662C95.992 25.0662 93.9305 22.9576 93.9305 20.3561C93.9305 17.7551 95.992 15.6464 98.5349 15.6464C101.079 15.6464 103.14 17.7551 103.14 20.3561C103.14 22.9576 101.079 25.0662 98.5349 25.0662ZM88.9917 19.4373C88.9917 15.6777 86.6219 13.1414 82.8426 13.1414C81.0385 13.1414 79.5596 14.1854 79.0373 15.0823C78.9244 14.381 78.5524 13.6439 77.3988 13.6439H76.8108C76.5833 13.6439 76.3976 13.8302 76.3976 14.0576V25.6959V25.6977V26.9478H76.3999C76.4118 27.1646 76.5913 27.3387 76.8109 27.3387H78.6269C78.6547 27.3387 78.682 27.3354 78.7084 27.3303C78.7204 27.3279 78.7315 27.3232 78.7432 27.3199L78.756 27.3162C78.7654 27.3135 78.7748 27.3109 78.7837 27.3073C78.7998 27.3006 78.8144 27.2916 78.8295 27.2832C78.8368 27.2786 78.8446 27.2755 78.8517 27.2708C78.8698 27.2591 78.8864 27.245 78.9025 27.2307C78.9051 27.228 78.9082 27.2262 78.9109 27.2238C78.9289 27.2063 78.9455 27.187 78.96 27.167C79.0055 27.1045 79.0332 27.029 79.0378 26.9478H79.0401V19.3339C79.0401 17.3147 80.6759 15.6777 82.6937 15.6777C84.7113 15.6777 86.3472 17.3147 86.3472 19.3339L86.3488 25.6981L86.3493 25.6959C86.3493 25.6987 86.3495 25.7015 86.3497 25.7043C86.3499 25.7073 86.3501 25.7103 86.3501 25.7133V26.9478H86.3526C86.3646 27.1646 86.5439 27.3387 86.7635 27.3387H88.5796C88.6075 27.3387 88.6346 27.3354 88.6609 27.3303C88.6717 27.3283 88.6816 27.324 88.6922 27.3211L88.7034 27.3179C88.7087 27.3164 88.7139 27.3149 88.7192 27.3133C88.7251 27.3115 88.7309 27.3095 88.7366 27.3073C88.7514 27.3011 88.7649 27.2925 88.779 27.2846L88.7834 27.2822L88.7892 27.2793L88.7937 27.2771L88.7984 27.2746L88.8017 27.2727L88.8048 27.2708C88.8215 27.2597 88.8369 27.2464 88.852 27.2333C88.8558 27.2297 88.8601 27.2271 88.8637 27.2235C88.881 27.2069 88.8963 27.1889 88.9103 27.1701L88.9119 27.1681L88.9135 27.1661C88.9583 27.1043 88.9857 27.0295 88.9904 26.9489L88.9906 26.9478H88.993L88.9917 19.4373ZM42.1363 27.3064C41.1348 27.3064 40.5566 26.3864 40.4931 25.6636L40.4928 25.662C39.5433 26.9195 37.6262 27.6022 35.8671 27.6022C31.8686 27.6022 28.6271 24.3581 28.6271 20.3561C28.6271 16.3543 31.8686 13.1104 35.8671 13.1104C37.6262 13.1104 39.3804 13.6796 40.4931 15.0511V14.0038H40.4953C40.5075 13.7866 40.6868 13.6127 40.9065 13.6127H42.7225C42.942 13.6127 43.1214 13.7866 43.1333 14.0038H43.1358V26.8929C43.1358 27.1202 42.9496 27.3064 42.7225 27.3064H42.1363ZM31.2695 20.3561C31.2695 22.9577 33.3311 25.0662 35.8742 25.0662C38.4171 25.0662 40.4785 22.9577 40.4785 20.3561C40.4785 17.7551 38.4171 15.6464 35.8742 15.6464C33.3311 15.6464 31.2695 17.7551 31.2695 20.3561Z" fill="#818898"/>
</svg>
