<svg width="137" height="40" viewBox="0 0 137 40" fill="none" xmlns="http://www.w3.org/2000/svg">
<g clip-path="url(#clip0_615_70165)">
<path fill-rule="evenodd" clip-rule="evenodd" d="M8.2475 12.8855C8.54514 12.563 8.56995 12.067 8.56995 11.7693V8.47048C8.56995 7.55275 8.56995 7.00708 8.61955 6.63503C8.64436 6.4366 8.74357 6.18856 8.79318 6.06455C8.81798 6.01494 8.79318 6.01494 8.76837 6.03974L1.52577 13.4064C1.50097 13.4312 1.50097 13.456 1.55058 13.4312C1.6746 13.3816 1.92263 13.2823 2.12106 13.2575C2.49311 13.2079 3.03878 13.2079 3.95651 13.2079H7.13135C7.42899 13.2079 7.92506 13.1831 8.2475 12.8855ZM13.8531 32.3314C14.0267 32.7778 14.4732 33.4971 15.3165 34.0428C15.9862 34.5141 17.0031 34.9605 18.3673 34.9605C18.3673 34.9605 24.717 35.3326 25.7835 27.6931C25.8579 27.6931 26.7757 19.8553 25.2626 11.7693C24.6741 8.66813 21.8131 8.21127 20.2807 7.96657C20.134 7.94315 19.9995 7.92167 19.8803 7.9C18.4417 7.65197 15.5893 7.1559 15.5893 7.1559C15.5893 7.1559 15.2669 5.61809 13.7539 5.24604C13.7011 5.23285 13.6523 5.22045 13.6065 5.20883C13.3939 5.15483 13.2474 5.11762 13.0842 5.09721C12.8113 5.07241 12.5137 5.04761 12.2657 5.04761H11.6704C10.455 5.04761 9.63649 5.81651 9.51248 6.73424V6.88306V11.9678C9.51248 12.6375 9.41326 13.2079 8.9916 13.6048C8.66916 13.9024 8.17309 14.1257 7.30497 14.1257H2.39389H2.24507C1.30254 14.2497 0.558441 15.0682 0.558441 16.2836C0.559617 16.2977 0.560793 16.3118 0.561974 16.3261C0.585708 16.612 0.611575 16.9236 0.682458 17.3253C0.820717 18.2536 1.03762 19.2291 1.19539 19.9387C1.23574 20.1202 1.27223 20.2843 1.30254 20.4257C1.94743 23.2781 3.1876 24.2951 3.1876 24.2951C5.02306 26.1801 7.67702 26.9738 10.1822 26.825C10.2566 26.825 10.5046 26.8002 10.7278 26.7506C10.9511 26.701 11.1495 26.6266 11.2983 26.5522C12.8361 25.6097 13.605 22.1372 13.605 22.1372C13.7787 24.4439 16.383 25.2624 17.4248 25.3864C17.4496 25.3864 17.7968 25.436 18.1689 25.5104C18.1985 25.5179 18.2284 25.5253 18.2585 25.5327C18.5296 25.5999 18.8087 25.6691 18.9874 25.7585C20.3268 26.3538 21.3437 27.6931 21.3437 29.2061C21.3437 30.8928 19.9795 32.257 18.2929 32.257C17.648 32.257 17.0527 32.0089 16.6063 31.5625C16.3582 31.3144 16.2094 30.9672 16.2094 30.5951C16.2094 30.2479 16.4078 29.9254 16.6559 29.727C16.847 29.5571 17.2198 29.4963 17.401 29.4668C17.4315 29.4618 17.4565 29.4578 17.4744 29.4542C17.5984 29.4294 17.772 29.3798 17.896 29.3054C18.2433 29.1069 18.4665 28.7597 18.4665 28.338C18.4665 27.7179 17.9704 27.2219 17.3504 27.2219C15.2669 27.2219 13.5802 28.9085 13.5802 30.9672C13.5802 31.4385 13.6795 31.9097 13.8531 32.3314ZM19.2602 18.6647C19.5083 18.0446 20.2028 17.7222 21.0213 17.7966C21.8398 17.8958 22.4351 18.3671 22.5343 19.0615C22.5343 19.0925 22.5358 19.1251 22.5374 19.1577C22.542 19.2553 22.5467 19.353 22.5095 19.4088C22.4599 19.4832 22.4103 19.508 22.3606 19.508C22.0382 19.5576 21.5421 19.508 20.8228 19.4336C20.1035 19.3592 19.6075 19.2848 19.3098 19.136C19.2602 19.1111 19.2106 19.0863 19.1858 19.0119C19.161 18.9375 19.2106 18.7887 19.2602 18.6647ZM34.2658 25.982L33.4224 26.1556L33.4473 26.8501H47.362L47.7092 21.0213H46.9155C46.2706 22.5839 45.7994 23.6257 45.3529 24.2954C44.5344 25.5107 44.1375 25.7588 42.1533 25.7588C39.7473 25.7588 39.6729 25.5107 39.6729 23.3032V18.541H40.3426C42.1532 18.541 42.4757 18.665 42.7733 19.2851C43.1206 20.0044 43.319 20.5004 43.5422 21.2693H44.2863V14.8701H43.5422C43.319 15.6638 43.1206 16.135 42.7733 16.7551C42.4757 17.3008 42.0788 17.4992 40.3426 17.4992H39.6729V11.1743C40.045 11.0751 40.665 10.9263 41.93 10.9263C43.6415 10.9263 44.1623 11.0255 44.956 12.1665C45.3281 12.7122 45.7249 13.4315 46.345 14.7956H47.1139L46.8659 9.85977H33.4224V10.5543L34.2658 10.7279C34.9851 10.9015 35.2083 11.0255 35.2083 12.5137V24.1961C35.2083 25.6843 35.0099 25.7836 34.2658 25.982ZM48.3293 14.9197C48.9494 15.1181 49.2222 15.4653 49.7927 16.8543L53.8357 26.8501H55.9192L59.7141 17.1272C60.3094 15.5149 60.5822 15.1429 61.2271 14.9197L61.6983 14.7708V14.126H57.1593V14.7708L57.829 14.9445C58.3499 15.0685 58.5979 15.3413 58.5979 15.887C58.5979 16.2342 58.4987 16.6559 58.2755 17.2512L56.2912 22.9064H56.1672L54.1085 17.2512C53.9101 16.7055 53.7861 16.2839 53.7861 15.9366C53.7861 15.3413 54.0341 15.0933 54.555 14.9445L55.2247 14.7708V14.126H47.858V14.7708L48.3293 14.9197ZM67.5272 13.8035C64.2779 13.8035 61.1279 16.1598 61.1279 20.426C61.1279 24.593 63.2362 27.1229 67.5023 27.1726C69.9579 27.1726 71.8182 25.8828 72.6863 24.9402V24.1217C71.7685 24.593 70.6028 25.0395 69.0898 25.0395C66.5598 25.0395 65.0468 23.9481 64.9724 19.93H73.0831C73.0087 15.4901 70.9004 13.8035 67.5272 13.8035ZM69.1642 18.7642L64.9724 18.9874C65.0716 15.9118 66.0638 14.7212 67.3039 14.7212C68.7673 14.7212 69.1642 15.8126 69.1642 18.7642ZM83.2773 13.7291C81.6403 13.7291 80.2265 14.9445 79.532 15.6886L79.4576 15.6638L79.5072 13.9771L79.2344 13.7787L74.0753 14.374V14.8701L74.8938 15.4157L74.9129 15.4287C75.5906 15.8885 75.7123 15.971 75.7123 17.0032V24.6178C75.7123 25.6595 75.6131 25.7836 74.7946 26.0068L74.1497 26.1804V26.8501H81.2186V26.1804L80.4001 26.0068C79.656 25.8828 79.5568 25.7588 79.5568 24.6178V16.6807C79.8793 16.3831 80.4001 16.0606 80.8466 16.0606C81.0698 16.0606 81.3923 16.135 81.5411 16.4079C81.8139 17.0776 82.5084 17.5488 83.2773 17.5488C84.3439 17.5488 85.1872 16.7055 85.1872 15.639C85.1872 14.5724 84.3191 13.7291 83.2773 13.7291ZM86.5762 26.0068L85.9313 26.1804H85.9809V26.8501H92.8018V26.1804L92.2066 26.0316C91.4625 25.8332 91.3881 25.7836 91.3881 24.6178V16.3831L91.3973 16.381C91.9435 16.2568 92.8067 16.0606 93.67 16.0606C94.8109 16.0606 95.3566 16.5319 95.3566 18.0201V24.593C95.3566 25.734 95.2822 25.8084 94.5381 26.0068L93.9428 26.1556V26.8253H100.764V26.1556L100.119 25.982C99.3251 25.7836 99.2259 25.6595 99.2259 24.593V17.0528C99.2259 14.8453 98.1098 13.7787 96.0263 13.7787C94.2404 13.7787 92.6282 14.5972 91.3384 15.5149H91.2392L91.2888 13.9523L91.016 13.7787L85.8569 14.374V14.8701L86.6754 15.4157L86.6945 15.4287C87.3722 15.8885 87.4939 15.971 87.4939 17.0032V24.6178C87.4939 25.6595 87.3947 25.7836 86.5762 26.0068ZM107.858 13.8035C104.559 13.8035 101.235 15.8126 101.235 20.5004C101.235 24.9899 104.311 27.1229 107.858 27.1229C111.231 27.1229 114.505 25.0643 114.505 20.3764C114.505 15.9366 111.404 13.8035 107.858 13.8035ZM107.758 14.746C109.445 14.746 110.387 15.6886 110.387 20.6245C110.387 25.3123 109.371 26.1804 107.907 26.1804C106.121 26.1804 105.303 25.0891 105.303 20.0788C105.303 15.8622 106.221 14.746 107.758 14.746ZM116.613 15.5646V23.7497C116.613 26.1556 117.804 27.1229 120.011 27.1229C122.07 27.1229 123.285 26.23 123.881 25.6843V24.9899C123.434 25.0891 122.715 25.2131 122.119 25.2131C120.904 25.2131 120.532 24.717 120.532 23.5016V15.5646H123.459L123.781 14.126H120.532V10.8519H119.143C118.449 12.8114 116.985 14.2252 115.075 14.9693V15.5646H116.613ZM130.776 13.8035C127.527 13.8035 124.377 16.1598 124.377 20.426C124.377 24.593 126.485 27.1229 130.776 27.1726C133.231 27.1726 135.092 25.8828 135.96 24.9402V24.1217C135.042 24.593 133.876 25.0395 132.363 25.0395C129.833 25.0395 128.32 23.9481 128.246 19.93H136.332C136.257 15.4901 134.149 13.8035 130.776 13.8035ZM132.413 18.7642L128.221 18.9874C128.32 15.9118 129.312 14.7212 130.553 14.7212C132.016 14.7212 132.413 15.8126 132.413 18.7642Z" fill="#818898"/>
</g>
<defs>
<clipPath id="clip0_615_70165">
<rect width="136" height="40" fill="white" transform="translate(0.5)"/>
</clipPath>
</defs>
</svg>
