<svg width="141" height="40" viewBox="0 0 141 40" fill="none" xmlns="http://www.w3.org/2000/svg">
<g clip-path="url(#clip0_615_70179)">
<path fill-rule="evenodd" clip-rule="evenodd" d="M64.1031 24.3818C63.1318 24.6058 62.6293 24.307 62.6293 23.6636C62.6293 22.782 63.5407 22.4292 64.8429 22.4292C65.4156 22.4292 65.9559 22.4786 65.9559 22.4786C65.9559 22.856 65.1359 24.1436 64.1031 24.3818ZM65.0914 15.556C61.9822 15.556 59.7498 16.6994 59.7498 16.6994V20.0605C59.7498 20.0605 62.2145 18.6437 64.214 18.6437C65.8092 18.6437 66.0054 19.5044 65.9331 20.2185C65.9331 20.2185 65.4726 20.0967 64.0686 20.0967C60.759 20.0967 59.089 21.6008 59.089 24.0123C59.089 26.2999 60.966 27.2558 62.5478 27.2558C64.8554 27.2558 65.8703 25.7047 66.1816 24.9691C66.3981 24.4587 66.438 24.1145 66.6317 24.1145C66.8541 24.1145 66.7793 24.3614 66.7681 24.8693C66.7498 25.7591 66.7922 26.4316 66.9331 26.9985H69.9933V21.494C69.9933 18.0572 68.7772 15.556 65.0914 15.556Z" fill="#818898"/>
<path fill-rule="evenodd" clip-rule="evenodd" d="M85.2329 21.4115C85.2329 20.4061 86.1676 19.4905 87.8833 19.4905C89.7523 19.4905 91.2565 20.3907 91.5935 20.5952V16.7042C91.5935 16.7042 90.4057 15.5604 87.486 15.5604C84.4083 15.5604 81.8451 17.3613 81.8451 21.2378C81.8451 25.1139 84.1714 27.2635 87.4776 27.2635C90.0607 27.2635 91.6002 25.8441 91.6002 25.8441V22.1488C91.1131 22.421 89.7561 23.3633 87.902 23.3633C85.939 23.3633 85.2329 22.4597 85.2329 21.4115ZM44.3314 15.8151C44.3318 15.8176 44.5268 16.6539 44.2699 17.7474C44.139 18.3035 43.8983 18.7764 44.1889 18.7764C44.3892 18.7764 44.3896 18.6102 44.6502 18.0142C45.0313 17.1431 45.8347 15.5575 47.7121 15.5575C49.4968 15.5575 50.3376 16.6418 50.6161 17.6572C50.828 18.4286 50.6427 18.7764 50.9012 18.7764C51.0849 18.7764 51.1485 18.3762 51.3746 17.87C51.7806 16.9631 52.6638 15.5575 54.4502 15.5575C57.1455 15.5575 58.1746 17.5038 58.1746 20.4236V27.0025H54.1705V20.9373C54.1705 19.9261 54.0071 18.9452 53.0853 18.9452C52.2312 18.9452 51.833 20.4589 51.833 21.436V27.005H47.7553V20.9377C47.7553 19.6439 47.5729 18.9456 46.6635 18.9456C45.8763 18.9456 45.417 20.3384 45.417 21.4364V27.0029H41.3556V15.8151H44.3314ZM71.3261 15.8305C71.3278 15.8313 72.019 16.2299 73.3606 16.2299C74.7047 16.2299 75.3872 15.8305 75.3872 15.8305V27.0054H71.3261V15.8305ZM104.854 15.8305C104.856 15.8313 105.547 16.2299 106.889 16.2299C108.233 16.2299 108.915 15.8305 108.915 15.8305V27.0054H104.854V15.8305ZM80.7628 12.4282V27.0054H76.7014V12.4282H80.7628ZM96.4202 12.4282C96.4206 12.4295 96.5885 12.8484 96.5885 14.0945C96.5885 15.9344 96.1883 17.4319 95.9991 18.0026C95.899 18.3047 95.7203 18.771 95.9767 18.7794C96.1247 18.7839 96.2136 18.5612 96.3948 18.1746C96.5752 17.7877 97.4696 15.5599 99.8204 15.5599C103.059 15.5599 103.535 18.2116 103.535 21.0832V27.005H99.4733V20.84C99.4733 19.5757 99.2082 18.9477 98.3607 18.9477C97.3375 18.9477 96.9759 20.532 96.9759 21.4389V27.005H92.9144V12.4278L96.4202 12.4282ZM113.263 15.8151C113.264 15.8176 113.459 16.6539 113.202 17.7474C113.071 18.3035 112.83 18.7764 113.121 18.7764C113.321 18.7764 113.321 18.6102 113.582 18.0142C113.963 17.1431 114.767 15.5575 116.644 15.5575C118.51 15.5575 119.25 16.6468 119.548 17.6572C119.747 18.3342 119.575 18.7764 119.833 18.7764C120.017 18.7764 120.08 18.3762 120.306 17.87C120.712 16.9631 121.596 15.5575 123.382 15.5575C126.077 15.5575 127.106 17.5038 127.106 20.4236V27.0025H123.102V20.9373C123.102 19.9261 122.939 18.9452 122.017 18.9452C121.163 18.9452 120.764 20.4589 120.764 21.436V27.005H116.687V20.9377C116.687 19.6439 116.505 18.9456 115.595 18.9456C114.808 18.9456 114.349 20.3384 114.349 21.4364V27.0029H110.287V15.8151H113.263ZM73.3444 12.3152C71.972 12.3152 70.8585 13.0417 70.8585 13.9378C70.8585 14.8339 71.9716 15.5604 73.3444 15.5604C74.7176 15.5604 75.8306 14.8339 75.8306 13.9378C75.8306 13.0417 74.718 12.3152 73.3444 12.3152ZM106.873 12.3152C105.5 12.3152 104.386 13.0417 104.386 13.9378C104.386 14.8339 105.499 15.5604 106.873 15.5604C108.245 15.5604 109.359 14.8339 109.359 13.9378C109.359 13.0417 108.246 12.3152 106.873 12.3152Z" fill="#818898"/>
<path fill-rule="evenodd" clip-rule="evenodd" d="M134.025 24.5946C133.094 24.5946 132.409 23.4138 132.409 21.7683C132.409 20.1703 133.112 18.9429 133.993 18.9429C135.122 18.9429 135.604 19.9791 135.604 21.7683C135.604 23.6299 135.16 24.5946 134.025 24.5946ZM135.139 15.5535C133.052 15.5535 132.095 17.1184 131.679 18.0099C131.405 18.5988 131.419 18.7721 131.218 18.7721C130.928 18.7721 131.169 18.2991 131.299 17.743C131.557 16.6479 131.361 15.8112 131.361 15.8112H128.387V30.085H132.447V25.5597C132.927 26.3747 133.817 27.2454 135.189 27.2454C138.125 27.2454 139.603 24.7612 139.603 21.4051C139.603 17.6013 137.833 15.5535 135.139 15.5535Z" fill="#818898"/>
<path fill-rule="evenodd" clip-rule="evenodd" d="M26.9985 18.931C27.2715 18.8986 27.5329 18.8969 27.7736 18.931C27.9128 18.6118 27.9365 18.0619 27.8114 17.463C27.6256 16.5727 27.3738 16.0341 26.8534 16.118C26.333 16.202 26.3139 16.847 26.5001 17.7369C26.6049 18.2377 26.7911 18.6658 26.9985 18.931Z" fill="#818898"/>
<path fill-rule="evenodd" clip-rule="evenodd" d="M22.5342 19.6355C22.9062 19.7988 23.1352 19.9073 23.2246 19.8125C23.2823 19.7535 23.2649 19.6409 23.1759 19.4958C22.9922 19.1962 22.6144 18.8919 22.2133 18.7211C21.3937 18.3683 20.4158 18.4855 19.6614 19.0274C19.4125 19.2099 19.1764 19.4626 19.2101 19.616C19.2209 19.6654 19.2583 19.7028 19.3456 19.7153C19.5509 19.7386 20.2682 19.3761 21.0949 19.3254C21.678 19.2897 22.1618 19.4722 22.5342 19.6355Z" fill="#818898"/>
<path fill-rule="evenodd" clip-rule="evenodd" d="M21.7871 20.0628C21.3021 20.1393 21.0348 20.2993 20.8632 20.4477C20.7169 20.5757 20.6263 20.7174 20.6271 20.8167C20.6275 20.8641 20.6479 20.8915 20.6641 20.9053C20.6861 20.9248 20.7123 20.9356 20.7439 20.9356C20.8532 20.9356 21.0988 20.8371 21.0988 20.8371C21.7734 20.5956 22.2185 20.6251 22.6595 20.675C22.903 20.7024 23.0186 20.7174 23.0718 20.6339C23.0876 20.6098 23.1067 20.5578 23.0581 20.4788C22.9446 20.2947 22.4546 19.9834 21.7871 20.0628Z" fill="#818898"/>
<path fill-rule="evenodd" clip-rule="evenodd" d="M25.492 21.6306C25.8212 21.7923 26.1836 21.7287 26.3017 21.4889C26.4197 21.2491 26.2485 20.9232 25.9193 20.7616C25.5901 20.5999 25.2277 20.6635 25.1096 20.9033C24.9916 21.1435 25.1628 21.469 25.492 21.6306Z" fill="#818898"/>
<path fill-rule="evenodd" clip-rule="evenodd" d="M27.6087 19.7816C27.3414 19.7771 27.1195 20.0705 27.1132 20.4375C27.107 20.8045 27.319 21.105 27.5862 21.1096C27.8535 21.1141 28.0754 20.8207 28.0816 20.4537C28.0879 20.0871 27.8759 19.7862 27.6087 19.7816Z" fill="#818898"/>
<path fill-rule="evenodd" clip-rule="evenodd" d="M9.64549 26.394C9.57899 26.3104 9.46969 26.3358 9.3637 26.3607C9.28972 26.3782 9.20618 26.3973 9.11433 26.3961C8.91774 26.3923 8.75107 26.3084 8.65756 26.1646C8.53578 25.9775 8.54284 25.6986 8.67709 25.3794L8.73985 25.2365C8.95431 24.7552 9.313 23.9501 8.91026 23.1829C8.60685 22.6052 8.11226 22.2456 7.51751 22.17C6.94644 22.0977 6.35875 22.3092 5.98386 22.7228C5.39243 23.3753 5.29974 24.2635 5.41404 24.5773C5.45601 24.692 5.52168 24.724 5.56906 24.7307C5.66964 24.744 5.81844 24.6708 5.91154 24.4202L5.93814 24.3387C5.9797 24.2061 6.057 23.9593 6.18377 23.7614C6.33672 23.5229 6.57446 23.3587 6.85376 23.2984C7.13804 23.2373 7.42898 23.2918 7.67253 23.4514C8.08691 23.7224 8.24651 24.2302 8.06945 24.7144C7.97802 24.9651 7.82922 25.4443 7.86205 25.8379C7.92855 26.6346 8.41857 26.9547 8.85872 26.9887C9.28681 27.0049 9.58606 26.7643 9.6617 26.5889C9.70617 26.485 9.66877 26.4218 9.64424 26.3948" fill="#818898"/>
<path fill-rule="evenodd" clip-rule="evenodd" d="M13.7172 11.76C15.1137 10.1466 16.8323 8.74385 18.3722 7.95624C18.4254 7.92881 18.4819 7.98658 18.4532 8.03895C18.331 8.26048 18.0954 8.7347 18.021 9.09421C18.0093 9.15032 18.0704 9.19231 18.1178 9.1603C19.0758 8.50736 20.742 7.80745 22.2038 7.71767C22.2665 7.71393 22.2969 7.79415 22.247 7.8328C22.0247 8.00321 21.7815 8.23928 21.604 8.47785C21.5737 8.51858 21.6024 8.57677 21.6531 8.57718C22.6793 8.58466 24.126 8.94376 25.0691 9.47285C25.1327 9.50859 25.0874 9.63203 25.0159 9.61582C23.5891 9.28873 21.2537 9.0406 18.8273 9.63245C16.6615 10.1607 15.0081 10.9766 13.8024 11.8535C13.7413 11.898 13.6677 11.817 13.7172 11.76ZM26.4294 28.072C26.471 28.0545 26.4993 28.0075 26.4947 27.9606C26.4889 27.9028 26.4373 27.8608 26.3795 27.8667C26.3795 27.8667 23.3999 28.3076 20.5849 27.2773C20.8917 26.2806 21.7067 26.6406 22.939 26.7399C25.1601 26.8725 27.1509 26.5479 28.6223 26.1256C29.897 25.7599 31.5715 25.0383 32.872 24.0118C33.3105 24.9752 33.4655 26.0358 33.4655 26.0358C33.4655 26.0358 33.8051 25.9752 34.0889 26.1497C34.357 26.3147 34.5536 26.6576 34.4194 27.5445C34.1459 29.2012 33.4418 30.5462 32.2581 31.7835C31.5374 32.559 30.663 33.2332 29.6621 33.7236C29.1306 34.0029 28.5649 34.2444 27.9668 34.4393C23.5047 35.8969 18.937 34.2947 17.4649 30.8541C17.3472 30.5956 17.2479 30.3246 17.1698 30.0416C16.5426 27.7744 17.075 25.0541 18.74 23.3418C18.8426 23.2329 18.9474 23.1036 18.9474 22.9419C18.9474 22.8069 18.8614 22.6643 18.787 22.5629C18.2043 21.7179 16.1864 20.2782 16.5916 17.4919C16.8826 15.4902 18.6332 14.0804 20.2653 14.164L20.6789 14.1877C21.3863 14.2297 22.003 14.3203 22.5853 14.3448C23.56 14.3872 24.4361 14.2454 25.4743 13.3805C25.8243 13.0888 26.1052 12.8357 26.5803 12.7554C26.6302 12.7467 26.7544 12.7022 27.0026 12.7139C27.2561 12.7276 27.4972 12.797 27.7137 12.9412C28.5458 13.4948 28.6638 14.836 28.707 15.8169C28.7316 16.3768 28.7993 17.7317 28.8226 18.1207C28.8754 19.0101 29.1094 19.1353 29.5823 19.2911C29.8483 19.3788 30.0952 19.4441 30.4593 19.5463C31.5607 19.8555 32.2136 20.1693 32.6255 20.5725C32.8712 20.8243 32.9855 21.092 33.0208 21.3472C33.1505 22.2948 32.2851 23.4652 29.9938 24.5288C27.4893 25.6913 24.4506 25.9855 22.3513 25.7515L21.6157 25.6684C19.9366 25.4423 18.9786 27.6123 19.9864 29.0994C20.6361 30.0578 22.4054 30.6812 24.1755 30.6817C28.2341 30.6821 31.3537 28.9489 32.5141 27.4523L32.6068 27.3201C32.6642 27.2341 32.6168 27.1867 32.5457 27.2353C31.5977 27.8841 27.3866 30.4597 22.8821 29.6846C22.8821 29.6846 22.3347 29.5944 21.8351 29.4003C21.4382 29.2457 20.607 28.8633 20.506 28.0109C24.141 29.1351 26.4294 28.072 26.4294 28.072ZM6.46333 19.4333C5.19901 19.6789 4.08472 20.3954 3.40352 21.3854C2.99621 21.0459 2.23769 20.3884 2.10345 20.1319C1.01576 18.0663 3.29046 14.0505 4.87981 11.7825C8.80744 6.17779 14.9587 1.93553 17.8061 2.70526C18.2691 2.83618 19.8023 4.6138 19.8023 4.6138C19.8023 4.6138 16.9557 6.19317 14.3161 8.39472C10.7592 11.1333 8.07304 15.1137 6.46333 19.4333ZM8.58757 28.9115C8.39639 28.9444 8.20105 28.9572 8.00404 28.9523C6.10174 28.9011 4.04732 27.1888 3.84324 25.158C3.61756 22.9133 4.76468 21.1859 6.79541 20.7761C7.03813 20.7271 7.33156 20.6988 7.64785 20.7155C8.78583 20.7778 10.4625 21.6514 10.8452 24.1302C11.1844 26.3255 10.6457 28.5607 8.58757 28.9115ZM34.3545 24.9365C34.3383 24.8787 34.2319 24.491 34.086 24.0234C33.9401 23.5554 33.7893 23.2266 33.7893 23.2266C34.3745 22.3509 34.3849 21.5675 34.3067 21.124C34.2236 20.5741 33.9946 20.1057 33.5332 19.6211C33.0719 19.1369 32.128 18.6407 30.8018 18.2683L30.106 18.075C30.1027 18.0463 30.0694 16.4345 30.0395 15.7425C30.0175 15.2421 29.9747 14.4612 29.7324 13.6923C29.4435 12.6511 28.9406 11.7401 28.3126 11.1574C30.0458 9.36104 31.1276 7.38185 31.1247 5.68445C31.1197 2.41973 27.1102 1.4318 22.1689 3.47791L21.1219 3.92221C21.1174 3.91764 19.2292 2.06521 19.2009 2.04027C13.5672 -2.87364 -4.04694 16.7051 1.58433 21.4602L2.81499 22.503C2.4958 23.3301 2.37028 24.2777 2.47293 25.2964C2.60427 26.6052 3.27924 27.8596 4.37358 28.8288C5.41222 29.749 6.77795 30.3317 8.10296 30.3305C10.2945 35.3807 15.302 38.4788 21.173 38.6533C27.471 38.8403 32.7577 35.8853 34.973 30.5769C35.118 30.2045 35.7327 28.5258 35.7327 27.0437C35.7327 25.5545 34.8907 24.9365 34.3545 24.9365Z" fill="#818898"/>
</g>
<defs>
<clipPath id="clip0_615_70179">
<rect width="140" height="40" fill="white" transform="translate(0.166687)"/>
</clipPath>
</defs>
</svg>
