<svg width="122" height="40" viewBox="0 0 122 40" fill="none" xmlns="http://www.w3.org/2000/svg">
<g clip-path="url(#clip0_615_70180)">
<path d="M10.3014 10.6706C15.2631 10.6706 19.3045 14.712 19.3045 19.7137C19.3045 24.7155 15.2631 28.7568 10.3014 28.7568C5.33975 28.7568 1.29837 24.7555 1.29837 19.7137C1.29837 14.672 5.33975 10.6706 10.3014 10.6706ZM80.8856 10.4706V26.316C80.8856 27.5164 81.3657 27.8365 82.2861 28.0766L82.3261 28.2767H77.2443V26.316C76.6441 27.7565 75.4037 28.6368 73.8032 28.6368C71.0822 28.6368 69.2816 26.1559 69.2816 22.4747C69.2816 20.394 69.8818 18.6334 71.0022 17.3129C72.0826 16.0325 73.5631 15.3522 75.2036 15.3522C76.0039 15.3522 76.6841 15.5123 77.2443 15.8724V13.7117C77.2443 13.2315 77.1243 12.9114 76.8842 12.6713C76.5641 12.3912 76.0439 12.2712 75.2437 12.3512H75.2036V12.1512L80.8856 10.4706ZM100.172 15.3923V26.316C100.172 27.5164 100.652 27.8365 101.573 28.0766V28.2767H96.4909V26.276C95.8907 27.7165 94.5703 28.6368 93.0898 28.6368C91.3292 28.6368 90.2088 27.8365 89.7686 26.276L89.6886 25.8758C89.6086 25.4757 89.5686 25.0756 89.5686 24.6754V18.8334C89.5686 17.553 89.2885 17.1529 88.1681 17.0728H88.1281V16.8728L93.2098 15.3923V24.5954C93.2098 25.9559 93.81 26.7161 94.9304 26.7161C95.6106 26.7161 96.1708 26.356 96.4909 25.7558V18.8334C96.4909 17.513 96.2508 17.1129 95.3305 17.0328H95.2905V16.8328L100.172 15.3923ZM63.4796 15.3522C64.8401 15.3522 66.1606 15.8324 67.0409 16.6727C68.0412 17.633 68.5614 19.0335 68.6014 20.8741V20.9142H60.9588C60.7987 23.5551 62.4393 25.7158 64.6 25.7958C66.1605 25.9159 67.521 24.9555 68.2813 23.395L68.4813 23.475C68.0412 26.396 66.3206 28.5968 63.3196 28.5968C59.9184 28.5968 57.9978 25.7558 57.9177 22.1946V21.2743C58.0778 19.7137 58.558 18.3133 59.3982 17.2729C59.9184 16.6327 60.5186 16.1525 61.2389 15.8324C61.8391 15.5123 62.7194 15.3522 63.4396 15.3522H63.4796ZM116.418 15.3923C118.578 15.3923 119.899 16.7527 119.899 19.0735V26.5161C119.899 27.3964 120.299 27.8365 121.299 28.0766H121.339V28.2767H116.218V19.1936C116.218 17.7531 115.697 17.0328 114.617 17.0328C113.737 17.0328 113.297 17.673 113.057 18.2332C113.097 18.5133 113.137 18.7934 113.137 19.0735V26.6361C113.137 27.5564 113.417 27.8765 114.217 28.0766H114.257V28.2767H109.495V19.1936C109.495 17.7531 108.935 17.0328 107.895 17.0328C107.055 17.0328 106.614 17.633 106.414 18.1132V26.6761C106.414 27.5964 106.694 27.9165 107.495 28.1166H107.535V28.3167H102.773V18.7934C102.773 17.513 102.453 17.1129 101.373 17.0328H101.333V16.8328L106.414 15.4323V17.553C106.934 16.1925 108.135 15.3923 109.655 15.3923C111.376 15.3923 112.576 16.2326 112.977 17.7531C113.497 16.3126 114.817 15.3923 116.418 15.3923ZM43.4328 11.2709L48.1944 22.4347L52.956 11.2709H58.0778L58.0378 11.4709L57.9796 11.4839C57.0972 11.685 56.6373 12.0149 56.6373 13.1115V26.7161C56.7173 27.5964 57.1975 27.8765 58.0378 28.0766H58.0778V28.2767H51.5556V28.0766H51.5956C52.4359 27.8765 52.916 27.5964 52.996 26.7161V13.4716L46.7139 28.2367H46.3538L40.2317 13.8717V26.396C40.2317 27.5164 40.7118 27.8365 41.6322 28.0366H41.6722V28.2367H37.9109V28.0366H37.9509C38.8712 27.8365 39.3514 27.5164 39.3514 26.396V13.1115C39.3514 11.9911 38.8712 11.671 37.9509 11.4709H37.9109V11.2709H43.4328ZM87.0877 15.3923V26.316L87.0883 26.3899C87.1079 27.5297 87.587 27.8415 88.4882 28.0766L88.5282 28.2767H83.4465V18.8334C83.4465 17.553 83.1664 17.1529 82.046 17.0728H82.006V16.8728L87.0877 15.3923ZM24.7064 11.1908C27.1472 11.1908 29.1879 15.0321 29.1879 19.7137C29.1879 24.4354 27.1872 28.2367 24.7064 28.2367C22.2255 28.2367 20.2248 24.4354 20.2248 19.7137C20.2248 14.9921 22.2255 11.1908 24.7064 11.1908ZM31.5887 12.0711C32.509 12.0711 33.1893 15.5123 33.1893 19.7137C33.1893 23.9152 32.469 27.3564 31.5887 27.3564C30.7172 27.3564 30.0026 23.9837 29.9884 19.8396L29.9882 19.7137C29.9882 15.5123 30.7084 12.0711 31.5887 12.0711ZM75.8038 16.0725C74.2033 16.0725 73.203 18.1932 73.203 21.4743C73.203 23.0349 73.483 24.3953 73.9632 25.3157C74.4034 26.196 75.0436 26.6761 75.7638 26.6761C76.4841 26.6761 77.0042 26.356 77.2443 25.7558V16.9528C76.9642 16.3926 76.4441 16.0725 75.8038 16.0725ZM63.4396 16.1125C61.9991 16.1125 61.1588 17.8331 61.0388 20.2339V20.2739H65.4003C65.4803 18.3933 65.1602 17.1529 64.56 16.5527C64.2399 16.2726 63.8798 16.1125 63.4396 16.1125ZM85.127 10.5906C86.2874 10.5906 87.1677 11.4709 87.1677 12.6313C87.1677 13.7917 86.2874 14.672 85.127 14.672C83.9666 14.672 83.0863 13.7917 83.0863 12.6313C83.0863 11.4709 83.9666 10.5906 85.127 10.5906Z" fill="#818898"/>
</g>
<defs>
<clipPath id="clip0_615_70180">
<rect width="121" height="40" fill="white" transform="translate(0.833374)"/>
</clipPath>
</defs>
</svg>
