<svg width="108" height="40" viewBox="0 0 108 40" fill="none" xmlns="http://www.w3.org/2000/svg">
<g clip-path="url(#clip0_615_70178)">
<path d="M37.9677 28.9866V16.8877H38.1833L46.9901 28.9866H49.7615V11.2192H46.6822V23.2877H46.4666L37.6598 11.2192H34.8884V28.9866H37.9677ZM58.4759 29.2609C62.5406 29.2609 65.0348 26.64 65.0348 22.2515C65.0348 17.8934 62.5406 15.242 58.4759 15.242C54.442 15.242 51.917 17.8934 51.917 22.2515C51.9478 26.64 54.4112 29.2609 58.4759 29.2609ZM58.4759 26.7009C56.3204 26.7009 55.0887 25.0857 55.0887 22.2515C55.0887 19.4477 56.3204 17.802 58.4759 17.802C60.6314 17.802 61.8632 19.4477 61.8632 22.2515C61.8632 25.0857 60.6314 26.7009 58.4759 26.7009ZM67.837 12.2249V15.6078H65.6815V18.0458H67.837V25.3905C67.837 28.0114 69.0687 29.0476 72.2096 29.0476C72.7947 29.0476 73.3798 28.9866 73.8417 28.8952V26.5181C73.4722 26.5486 73.2258 26.579 72.7947 26.579C71.5014 26.579 70.9163 26 70.9163 24.6591V18.0458H73.8417V15.6078H70.9163V12.2249H67.837ZM75.6892 28.9866H78.7686V15.5163H75.6892V28.9866ZM77.2289 13.2916C78.2451 13.2916 79.0765 12.4688 79.0765 11.463C79.0765 10.4269 78.2451 9.60403 77.2289 9.60403C76.2127 9.60403 75.3813 10.4269 75.3813 11.463C75.3813 12.4688 76.2127 13.2916 77.2289 13.2916ZM87.2058 29.2609C91.2705 29.2609 93.7648 26.64 93.7648 22.2515C93.7648 17.8934 91.2705 15.242 87.2058 15.242C83.172 15.242 80.6469 17.8934 80.6469 22.2515C80.6469 26.64 83.1104 29.2609 87.2058 29.2609ZM87.2058 26.7009C85.0503 26.7009 83.8186 25.0857 83.8186 22.2515C83.8186 19.4477 85.0503 17.802 87.2058 17.802C89.3306 17.802 90.5931 19.4477 90.5931 22.2515C90.5623 25.0857 89.3306 26.7009 87.2058 26.7009ZM95.5816 28.9866H98.6609V21.1544C98.6609 19.1734 99.831 17.9239 101.648 17.9239C103.526 17.9239 104.388 18.9601 104.388 21.002V28.9866H107.468V20.2706C107.468 17.0401 105.805 15.242 102.787 15.242C100.755 15.242 99.3999 16.1563 98.7532 17.6801H98.5377V15.5163H95.5508C95.5816 15.5163 95.5816 28.9866 95.5816 28.9866Z" fill="#818898"/>
<path fill-rule="evenodd" clip-rule="evenodd" d="M5.36315 10.0821C6.25939 10.8051 6.58356 10.748 8.26162 10.6338L24.0697 9.68249C24.4129 9.68249 24.1269 9.34001 24.0125 9.30195L21.381 7.41829C20.8852 7.03776 20.1987 6.58111 18.9211 6.69527L3.62789 7.81786C3.07489 7.87494 2.96047 8.16034 3.1893 8.36964L5.36315 10.0821ZM6.31659 13.7542V30.3457C6.31659 31.2399 6.75518 31.5634 7.76583 31.5063L25.1376 30.4979C26.1482 30.4408 26.2626 29.8319 26.2626 29.1089V12.6317C26.2626 11.9086 25.9766 11.5091 25.3664 11.5661L7.21283 12.6317C6.54542 12.6887 6.31659 13.0312 6.31659 13.7542ZM23.4595 14.6485C23.5739 15.1432 23.4595 15.6569 22.9637 15.714L22.1247 15.8852V28.1385C21.4001 28.5191 20.7327 28.7474 20.1606 28.7474C19.2643 28.7474 19.0355 28.462 18.3681 27.6248L12.8953 19.0437V27.3394L14.6306 27.7199C14.6306 27.7199 14.6306 28.7284 13.2386 28.7284L9.38668 28.9567C9.27227 28.7284 9.38668 28.1766 9.76806 28.0624L10.7787 27.777V16.8176L9.38668 16.7034C9.27227 16.2087 9.5583 15.4857 10.3401 15.4286L14.4781 15.1432L20.1797 23.8194V16.1516L18.7304 15.9804C18.616 15.3715 19.0737 14.9149 19.6267 14.8578L23.4595 14.6485ZM2.35027 6.29571L18.2728 5.13507C20.2178 4.96383 20.7326 5.07799 21.9531 5.97225L27.0254 9.53027C27.8644 10.1391 28.1504 10.3104 28.1504 10.9763V30.5169C28.1504 31.7346 27.7118 32.4576 26.1482 32.5718L7.67048 33.6944C6.48821 33.7515 5.93522 33.5802 5.32501 32.8001L1.56845 27.9483C0.901038 27.054 0.615005 26.3881 0.615005 25.608V8.23645C0.615005 7.22802 1.07266 6.40987 2.35027 6.29571Z" fill="#818898"/>
</g>
<defs>
<clipPath id="clip0_615_70178">
<rect width="107" height="40" fill="white" transform="translate(0.5)"/>
</clipPath>
</defs>
</svg>
