<svg width="117" height="40" viewBox="0 0 117 40" fill="none" xmlns="http://www.w3.org/2000/svg">
<path d="M17.4751 2.63965C7.83433 2.63965 0.0185547 10.4552 0.0185547 20.096C0.0185547 29.7372 7.83433 37.5521 17.4751 37.5521C27.117 37.5521 34.9319 29.7372 34.9319 20.096C34.9319 10.4558 27.1172 2.63965 17.4751 2.63965ZM25.4806 27.8167C25.1679 28.3295 24.4967 28.4921 23.9839 28.1773C19.8853 25.6738 14.7256 25.1068 8.64918 26.4951C8.06363 26.6285 7.47996 26.2617 7.34655 25.6759C7.21251 25.0901 7.57793 24.5065 8.16494 24.3731C14.8146 22.8538 20.5186 23.508 25.12 26.32C25.6328 26.6348 25.7954 27.3039 25.4806 27.8167ZM27.6172 23.0636C27.2233 23.7039 26.3853 23.9061 25.7453 23.5121C21.053 20.628 13.9003 19.7927 8.35026 21.4774C7.63047 21.6948 6.87023 21.2892 6.65177 20.5707C6.43498 19.8509 6.84084 19.0921 7.55938 18.8732C13.8991 16.9496 21.7805 17.8814 27.1691 21.1927C27.809 21.5867 28.0112 22.4244 27.6172 23.0636ZM27.8007 18.114C22.1745 14.7723 12.8921 14.465 7.5204 16.0954C6.65782 16.357 5.74562 15.87 5.48422 15.0074C5.22282 14.1444 5.70935 13.2329 6.57256 12.9706C12.7388 11.0987 22.9896 11.4604 29.4671 15.3057C30.2446 15.7662 30.4989 16.7682 30.0382 17.5431C29.5796 18.3189 28.5741 18.5747 27.8007 18.114ZM47.5121 18.7544C44.4979 18.0356 43.9621 17.5312 43.9621 16.4712C43.9621 15.4698 44.9043 14.7959 46.3072 14.7959C47.6664 14.7959 49.013 15.3076 50.4263 16.3611C50.468 16.393 50.5222 16.4057 50.5743 16.3974C50.6285 16.3895 50.6744 16.3605 50.7056 16.3169L52.1773 14.2424C52.2378 14.1569 52.2211 14.0392 52.1398 13.9739C50.4576 12.6246 48.5648 11.9686 46.351 11.9686C43.0971 11.9686 40.8228 13.9216 40.8228 16.7159C40.8228 19.7124 42.7844 20.7735 46.1738 21.5925C49.0568 22.2568 49.5445 22.8134 49.5445 23.8082C49.5445 24.9109 48.5606 25.5967 46.9764 25.5967C45.217 25.5967 43.7808 25.0026 42.1757 23.6143C42.1361 23.5789 42.0819 23.5643 42.0318 23.5663C41.9776 23.5705 41.9297 23.5955 41.8964 23.6351L40.2454 25.5988C40.1766 25.6822 40.1849 25.8031 40.2642 25.8739C42.1319 27.5416 44.4291 28.4212 46.9097 28.4212C50.4159 28.4212 52.6818 26.5055 52.6818 23.5392C52.688 21.0363 51.1892 19.6501 47.5184 18.7571L47.5121 18.7544ZM60.6155 15.7818C59.0959 15.7818 57.8493 16.3805 56.8196 17.6073V16.2265C56.8196 16.1174 56.732 16.0286 56.6236 16.0286H53.9242C53.8158 16.0286 53.7282 16.1174 53.7282 16.2265V31.5689C53.7282 31.6773 53.8158 31.7669 53.9242 31.7669H56.6236C56.732 31.7669 56.8196 31.6773 56.8196 31.5689V26.7265C57.8493 27.8793 59.0959 28.4442 60.6155 28.4442C63.4401 28.4442 66.3001 26.27 66.3001 22.1136C66.3042 17.9564 63.4443 15.7816 60.6176 15.7816L60.6155 15.7818ZM63.1608 22.1136C63.1608 24.2292 61.8579 25.7072 59.9902 25.7072C58.1454 25.7072 56.7529 24.1625 56.7529 22.1136C56.7529 20.0645 58.1454 18.5203 59.9902 18.5203C61.8267 18.5201 63.1608 20.0312 63.1608 22.1136ZM73.6272 15.7818C69.9897 15.7818 67.1401 18.5826 67.1401 22.1589C67.1401 25.6967 69.971 28.4671 73.5835 28.4671C77.2335 28.4671 80.0914 25.6759 80.0914 22.1136C80.0914 18.5634 77.2523 15.7818 73.6272 15.7818ZM73.6272 25.728C71.6928 25.728 70.2336 24.1729 70.2336 22.1126C70.2336 20.0428 71.6428 18.5409 73.5835 18.5409C75.5304 18.5409 76.9979 20.0954 76.9979 22.1578C76.9979 24.2271 75.5805 25.728 73.6272 25.728ZM87.8584 16.0286H84.8879V12.9923C84.8879 12.8835 84.8004 12.7947 84.692 12.7947H81.9925C81.8841 12.7947 81.7945 12.8835 81.7945 12.9923V16.0286H80.4979C80.3895 16.0286 80.3019 16.1174 80.3019 16.2265V18.5459C80.3019 18.6548 80.3895 18.7438 80.4979 18.7438H81.7945V24.7462C81.7945 27.1705 83.0014 28.4004 85.384 28.4004C86.3513 28.4004 87.1538 28.2003 87.9105 27.7709C87.9731 27.7375 88.0106 27.6708 88.0106 27.5999V25.3903C88.0106 25.3236 87.9751 25.259 87.9168 25.2236C87.8584 25.186 87.7854 25.1839 87.725 25.2152C87.2059 25.4758 86.7036 25.5967 86.1407 25.5967C85.2757 25.5967 84.8879 25.2027 84.8879 24.323V18.7448H87.8584C87.9668 18.7448 88.0543 18.656 88.0543 18.547V16.2277C88.0585 16.1187 87.971 16.0299 87.8605 16.0299L87.8584 16.0286ZM98.2061 16.0405V15.6676C98.2061 14.5705 98.6271 14.0813 99.5694 14.0813C100.132 14.0813 100.585 14.193 101.091 14.3618C101.154 14.3814 101.218 14.3716 101.268 14.3343C101.32 14.297 101.35 14.2372 101.35 14.1738V11.8996C101.35 11.8127 101.295 11.7357 101.21 11.7101C100.676 11.5511 99.9925 11.3878 98.9669 11.3878C96.4759 11.3878 95.1564 12.7916 95.1564 15.4458V16.017H93.8598C93.7514 16.017 93.6618 16.1058 93.6618 16.2146V18.5459C93.6618 18.6548 93.7514 18.7438 93.8598 18.7438H95.1564V28.0002C95.1564 28.1106 95.246 28.1982 95.3544 28.1982H98.0518C98.1623 28.1982 98.2498 28.1106 98.2498 28.0002V18.7444H100.77L104.631 28.0002C104.193 28.9716 103.761 29.1654 103.174 29.1654C102.698 29.1654 102.196 29.0237 101.685 28.7423C101.637 28.7172 101.579 28.7131 101.529 28.7277C101.477 28.7464 101.433 28.7839 101.412 28.834L100.497 30.8414C100.453 30.9373 100.491 31.0478 100.582 31.0978C101.537 31.6148 102.398 31.8357 103.463 31.8357C105.456 31.8357 106.559 30.906 107.528 28.4087L112.21 16.3107C112.235 16.2498 112.227 16.181 112.189 16.127C112.154 16.0735 112.093 16.0412 112.029 16.0412H109.219C109.133 16.0412 109.058 16.0947 109.031 16.1737L106.152 24.3939L103.001 16.1683C102.971 16.0918 102.898 16.0412 102.817 16.0412L98.2061 16.0405ZM92.2067 16.0286H89.5073C89.3989 16.0286 89.3092 16.1174 89.3092 16.2265V28.0002C89.3092 28.1106 89.3989 28.1982 89.5073 28.1982H92.2067C92.3151 28.1982 92.4048 28.1106 92.4048 28.0002V16.2273C92.4048 16.1183 92.3172 16.0286 92.2067 16.0286ZM90.8727 10.6674C89.8033 10.6674 88.9361 11.5329 88.9361 12.6021C88.9361 13.6719 89.8033 14.5384 90.8727 14.5384C91.942 14.5384 92.8071 13.6719 92.8071 12.6021C92.8071 11.5331 91.9399 10.6674 90.8727 10.6674ZM114.516 19.8144C113.448 19.8144 112.616 18.9566 112.616 17.9149C112.616 16.8733 113.459 16.0057 114.526 16.0057C115.593 16.0057 116.425 16.8633 116.425 17.9041C116.425 18.9458 115.583 19.8144 114.516 19.8144ZM114.526 16.1946C113.552 16.1946 112.817 16.9679 112.817 17.9149C112.817 18.8615 113.548 19.6245 114.516 19.6245C115.489 19.6245 116.225 18.8517 116.225 17.9041C116.225 16.9575 115.493 16.1946 114.526 16.1946ZM114.947 18.0994L115.485 18.8515H115.03L114.547 18.1615H114.132V18.8515H113.753V16.8579H114.641C115.105 16.8579 115.41 17.0949 115.41 17.4939C115.412 17.8207 115.222 18.0204 114.949 18.0994H114.947ZM114.626 17.2H114.132V17.8305H114.626C114.872 17.8305 115.02 17.7098 115.02 17.5149C115.02 17.3098 114.872 17.2 114.626 17.2Z" fill="#818898"/>
</svg>
