<svg width="111" height="40" viewBox="0 0 111 40" fill="none" xmlns="http://www.w3.org/2000/svg">
<g clip-path="url(#clip0_615_70181)">
<path d="M23.8135 5.89844H5.57003C3.04097 5.89844 0.991272 7.94814 0.991272 10.4772V28.7206C0.991272 31.2497 3.04097 33.2994 5.57003 33.2994H23.8135C26.3425 33.2994 28.3922 31.2497 28.3922 28.7206V10.4772C28.3922 7.94814 26.3425 5.89844 23.8135 5.89844ZM23.4112 26.872C23.4112 27.671 22.7638 28.3184 21.9649 28.3184H7.41862C6.61968 28.3184 5.97226 27.671 5.97226 26.872V12.3258C5.97226 11.5268 6.61968 10.8794 7.41862 10.8794H21.9649C22.7638 10.8794 23.4112 11.5268 23.4112 12.3258V26.872ZM11.7852 23.3181C11.3252 23.3181 10.956 22.9462 10.956 22.4861V16.6786C10.956 16.2186 11.3252 15.8439 11.7852 15.8439H17.601C18.0583 15.8439 18.4302 16.2158 18.4302 16.6786V22.4834C18.4302 22.9434 18.0583 23.3154 17.601 23.3154H11.7852V23.3181ZM35.6571 22.9214H38.649C38.7977 24.6157 39.9466 25.9381 42.2635 25.9381C44.3325 25.9381 45.6053 24.916 45.6053 23.3705C45.6053 21.9241 44.608 21.2767 42.8117 20.8524L40.4921 20.3538C37.974 19.8055 36.0786 18.1856 36.0786 15.5408C36.0786 12.6233 38.671 10.6287 42.0376 10.6287C45.6025 10.6287 47.8974 12.4993 48.0958 15.2653H45.2031C44.8587 13.9705 43.7842 13.1991 42.0403 13.1991C40.1945 13.1991 38.9245 14.1964 38.9245 15.4692C38.9245 16.742 40.021 17.5134 41.9164 17.9377L44.2113 18.4363C46.7293 18.9846 48.4484 20.5053 48.4484 23.1721C48.4484 26.5635 45.9056 28.5829 42.2663 28.5829C38.1751 28.5801 35.9078 26.3624 35.6571 22.9214ZM59.1515 33.2994V28.3377L59.3471 26.1612H59.1515C58.4655 27.7261 57.0246 28.5829 55.0686 28.5829C51.9142 28.5829 49.5669 26.0152 49.5669 22.0784C49.5669 18.1415 51.9142 15.5739 55.0686 15.5739C56.9998 15.5739 58.3691 16.4775 59.1515 17.8963H59.3471V15.8163H61.9395V33.2994H59.1515ZM59.2479 22.0756C59.2479 19.5576 57.7079 18.0892 55.8235 18.0892C53.9391 18.0892 52.399 19.5576 52.399 22.0756C52.399 24.5937 53.9391 26.0621 55.8235 26.0621C57.7079 26.0621 59.2479 24.5964 59.2479 22.0756ZM64.0085 23.3732V15.8163H66.7965V23.128C66.7965 25.1089 67.7497 26.0621 69.3393 26.0621C71.2954 26.0621 72.5682 24.6681 72.5682 22.4916V15.8163H75.3562V28.3349H72.7638V25.7425H72.5682C71.9566 27.4065 70.6121 28.5801 68.5349 28.5801C65.5485 28.5801 64.0085 26.6737 64.0085 23.3732ZM77.0533 24.8389C77.0533 22.4916 78.6925 21.1224 81.6017 20.9516L85.0482 20.7312V19.7532C85.0482 18.5796 84.1914 17.8715 82.6762 17.8715C81.2822 17.8715 80.4501 18.5796 80.2298 19.5824H77.4417C77.7365 17.0395 79.8385 15.5711 82.6734 15.5711C85.8774 15.5711 87.8335 16.9404 87.8335 19.5824V28.3349H85.2411V26.0125H85.0454C84.4586 27.5525 83.2354 28.5801 80.8882 28.5801C78.6429 28.5801 77.0533 27.0649 77.0533 24.8389ZM85.0509 23.2988V22.6376L82.2381 22.8332C80.7229 22.9297 80.0369 23.4944 80.0369 24.6185C80.0369 25.5717 80.8193 26.2577 81.9185 26.2577C83.9021 26.2577 85.0509 24.9876 85.0509 23.2988ZM89.9135 28.3377V15.8163H92.5059V18.2132H92.7015C93.0679 16.5739 94.3159 15.8163 96.1728 15.8163H97.4456V18.3344H95.8559C94.0459 18.3344 92.7015 19.508 92.7015 21.734V28.3349H89.9135V28.3377ZM110.201 22.5908H100.688C100.834 24.8885 102.449 26.186 104.234 26.186C105.749 26.186 106.702 25.5744 107.242 24.5468H110.005C109.248 27.0897 107.022 28.5801 104.209 28.5801C100.517 28.5801 97.9249 25.8169 97.9249 22.0756C97.9249 18.3344 100.589 15.5711 104.234 15.5711C107.901 15.5711 110.298 18.0892 110.298 21.2188C110.3 21.8332 110.251 22.15 110.201 22.5908ZM107.537 20.6596C107.441 18.9239 105.997 17.7503 104.237 17.7503C102.573 17.7503 101.181 18.8027 100.837 20.6596H107.537Z" fill="#818898"/>
</g>
<defs>
<clipPath id="clip0_615_70181">
<rect width="110" height="40" fill="white" transform="translate(0.500061)"/>
</clipPath>
</defs>
</svg>
