<svg version="1.2" xmlns="http://www.w3.org/2000/svg" viewBox="0 0 628 300" width="628" height="300">
	<defs>
		<clipPath clipPathUnits="userSpaceOnUse" id="cp1">
			<path d="m16 0h596c8.84 0 16 7.16 16 16v268c0 8.84-7.16 16-16 16h-596c-8.84 0-16-7.16-16-16v-268c0-8.84 7.16-16 16-16z"/>
		</clipPath>
		<image  width="420" height="380" id="img1" href="/images/homepage/features/anim1-Item1.webp"/>
		<linearGradient id="g1" x2="1" gradientUnits="userSpaceOnUse" gradientTransform="matrix(0,300,-628,0,314,.027)">
			<stop offset="0" stop-color="#f8fafb" stop-opacity="0"/>
			<stop offset="1" stop-color="#f8fafb" stop-opacity="1"/>
		</linearGradient>
		<image  width="56" height="56" id="img2" href="/images/homepage/features/anim1-Item2.webp"/>
		<image  width="276" height="90" id="img3" href="/images/homepage/features/anim1-Item3.webp"/>
	</defs>
	<style>
		.s0 { fill: #f8fafb } 
		.s1 { fill: url(#g1) } 
	</style>
	<g id="Clip-Path" clip-path="url(#cp1)">
		<g>
			<path fill-rule="evenodd" class="s0" d="m16 0h596c8.84 0 16 7.16 16 16v268c0 8.84-7.16 16-16 16h-596c-8.84 0-16-7.16-16-16v-268c0-8.84 7.16-16 16-16z"/>
			<use id="item1" href="#img1" x="32" y="35"/>
			<path fill-rule="evenodd" class="s1" d="m0 0.03h628v300h-628z"/>
			<use id="item3" href="#img2" x="483" y="55"/>
			<use id="item2" href="#img3" x="326" y="140"/>
		</g>
	</g>
</svg>