<svg width="23" height="22" viewBox="0 0 23 22" fill="none" xmlns="http://www.w3.org/2000/svg">
<path d="M15.6459 17.0149C16.0747 18.6153 15.125 20.2603 13.5246 20.6891C11.9242 21.118 10.2792 20.1682 9.85036 18.5678M2.05683 10.6134C1.66734 9.21525 2.07238 7.70361 3.10878 6.6875M12.1463 4.74097C12.4505 4.19367 12.5507 3.53217 12.3759 2.87957C12.0185 1.54591 10.6477 0.754452 9.314 1.11181C7.98034 1.46916 7.18888 2.84 7.54624 4.17367C7.7211 4.82627 8.13863 5.34904 8.67573 5.67091M20.319 5.72012C19.9572 4.31451 18.8506 3.20792 17.445 2.84614M17.4906 8.4454C17.1337 7.11327 16.1808 5.99931 14.8415 5.34858C13.5022 4.69784 11.8863 4.56365 10.3492 4.9755C8.81214 5.38736 7.47981 6.31154 6.64533 7.54473C5.81085 8.77792 5.54258 10.2191 5.89952 11.5512C6.4901 13.7553 6.37542 15.5137 6.00247 16.8498C5.5774 18.3727 5.36487 19.1341 5.42228 19.287C5.48798 19.4619 5.53549 19.5099 5.70973 19.5774C5.86202 19.6364 6.50179 19.465 7.78133 19.1222L19.6464 15.9429C20.9259 15.6001 21.5657 15.4286 21.6681 15.3014C21.7852 15.1558 21.8024 15.0905 21.7718 14.9061C21.7451 14.745 21.1803 14.1919 20.0508 13.0856C19.0597 12.1149 18.0812 10.6495 17.4906 8.4454Z" stroke="#F04040" stroke-width="2" stroke-linecap="round" stroke-linejoin="round"/>
</svg>
