<svg width="64" height="64" viewBox="0 0 64 64" fill="none" xmlns="http://www.w3.org/2000/svg">
<path d="M60.0028 32.6219C60.0028 30.3197 59.8122 28.6397 59.3996 26.8975H32.5743V37.2884H48.3202C48.0028 39.8708 46.2885 43.7597 42.4789 46.3728L42.4255 46.7207L50.9072 53.16L51.4949 53.2175C56.8916 48.3329 60.0028 41.1463 60.0028 32.6219" fill="#4285F4"/>
<path d="M32.5725 60C40.2866 60 46.7627 57.511 51.493 53.2178L42.4771 46.3731C40.0645 48.022 36.8263 49.1731 32.5725 49.1731C25.017 49.1731 18.6044 44.2888 16.3185 37.5376L15.9834 37.5655L7.16404 44.2545L7.04871 44.5687C11.7471 53.7154 21.3978 60 32.5725 60Z" fill="#34A853"/>
<path d="M16.3193 37.5377C15.7161 35.7955 15.367 33.9287 15.367 31.9999C15.367 30.0709 15.7161 28.2043 16.2875 26.4621L16.2716 26.091L7.34167 19.2947L7.0495 19.4309C5.11308 23.2265 4.00195 27.4888 4.00195 31.9999C4.00195 36.511 5.11308 40.7731 7.0495 44.5687L16.3193 37.5377" fill="#FBBC05"/>
<path d="M32.5726 14.8266C37.9376 14.8266 41.5566 17.0977 43.6202 18.9956L51.6837 11.28C46.7314 6.7689 40.2868 4 32.5726 4C21.3979 4 11.7471 10.2844 7.04871 19.431L16.2868 26.4622C18.6045 19.7111 25.0171 14.8266 32.5726 14.8266" fill="#EB4335"/>
</svg>
