<svg width="64" height="64" viewBox="0 0 64 64" fill="none" xmlns="http://www.w3.org/2000/svg">
<g clip-path="url(#clip0_4685_36394)">
<path fill-rule="evenodd" clip-rule="evenodd" d="M35.1492 0.406349L33.8286 16.6603C33.219 16.5587 32.6095 16.5587 31.8984 16.5587C31.0857 16.5587 30.273 16.6603 29.5619 16.7619L28.8508 8.93968C28.8508 8.73651 29.054 8.43175 29.2571 8.43175H30.5778L29.9683 0.507936C29.9683 0.304762 30.1714 0 30.3746 0H34.7429C35.0476 0 35.2508 0.203175 35.1492 0.406349ZM24.1778 1.21905C24.0762 1.01587 23.873 0.812698 23.6698 0.914286L19.6063 2.4381C19.3016 2.53968 19.2 2.84444 19.3016 3.04762L22.654 10.2603L21.4349 10.7683C21.2317 10.8698 21.1302 11.073 21.2317 11.3778L24.5841 18.4889C25.8032 17.7778 27.1238 17.2698 28.546 16.9651L24.1778 1.21905ZM14.2222 5.79048L23.6698 19.0984C22.4508 19.9111 21.4349 20.8254 20.5206 21.8413L14.7302 16.254C14.527 16.0508 14.527 15.746 14.7302 15.6444L15.746 14.8317L10.1587 9.14286C9.95555 8.93968 9.95555 8.63492 10.1587 8.53333L13.5111 5.79048C13.7143 5.48571 14.019 5.5873 14.2222 5.79048ZM6.29841 13.4095C6.09524 13.3079 5.79048 13.3079 5.68889 13.5111L3.55556 17.2698C3.45397 17.473 3.55556 17.7778 3.75873 17.8794L10.9714 21.3333L10.2603 22.4508C10.1587 22.654 10.2603 22.9587 10.4635 23.0603L17.6762 26.3111C18.1841 24.9905 18.8952 23.7714 19.7079 22.654L6.29841 13.4095ZM0.914286 23.6698C0.914286 23.4667 1.21905 23.2635 1.42222 23.3651L17.1683 27.4286C16.7619 28.7492 16.5587 30.1714 16.4571 31.5936L8.53333 30.9841C8.33016 30.9841 8.12698 30.781 8.12698 30.4762L8.33016 29.1556L0.609524 28.4444C0.406349 28.4444 0.203175 28.2413 0.203175 27.9365L0.914286 23.6698ZM0.406349 34.3365C0.101587 34.3365 0 34.5397 0 34.8444L0.812698 39.1111C0.812698 39.3143 1.11746 39.5175 1.32063 39.4159L9.04127 37.3841L9.24444 38.7048C9.24444 38.9079 9.54921 39.1111 9.75238 39.0095L17.3714 36.8762C16.9651 35.5556 16.6603 34.1333 16.5587 32.7111L0.406349 34.3365ZM2.94603 45.6127C2.84444 45.4095 2.94603 45.1048 3.14921 45.0032L17.8794 37.9937C18.3873 39.3143 19.2 40.5333 20.1143 41.6508L13.7143 46.2222C13.5111 46.3238 13.2063 46.3238 13.1048 46.1206L12.1905 45.0032L5.5873 49.5746C5.38413 49.6762 5.07936 49.6762 4.97778 49.473L2.94603 45.6127ZM20.7238 42.5651L9.24444 54.146C9.04127 54.3492 9.04127 54.654 9.24444 54.7556L12.5968 57.4984C12.8 57.7016 13.1048 57.6 13.2063 57.3968L17.8794 50.8952L18.8952 51.8095C19.0984 52.0127 19.4032 51.9111 19.5048 51.7079L23.9746 45.2063C22.7556 44.4952 21.6381 43.581 20.7238 42.5651ZM18.4889 61.054C18.2857 60.9524 18.1841 60.7492 18.2857 60.4444L24.9905 45.7143C26.2095 46.3238 27.6317 46.8317 28.9524 47.1365L26.9206 54.7556C26.819 54.9587 26.6159 55.1619 26.4127 55.0603L25.1936 54.5524L23.0603 62.273C22.9587 62.4762 22.7556 62.6794 22.5524 62.5778L18.4889 61.054ZM30.0698 47.3397L28.7492 63.5936C28.7492 63.7968 28.9524 64.1016 29.1556 64.1016H33.5238C33.727 64.1016 33.9302 63.8984 33.9302 63.5936L33.3206 55.6698H34.6413C34.8444 55.6698 35.0476 55.4667 35.0476 55.1619L34.3365 47.3397C33.5238 47.4413 32.8127 47.5429 32 47.5429C31.3905 47.4413 30.6794 47.4413 30.0698 47.3397ZM45.8159 3.45397C45.9175 3.25079 45.8159 2.94603 45.6127 2.84444L41.5492 1.32063C41.346 1.21905 41.0413 1.42222 41.0413 1.6254L38.9079 9.34603L37.6889 8.83809C37.4857 8.73651 37.1809 8.93968 37.1809 9.14286L35.1492 16.7619C36.5714 17.0667 37.8921 17.5746 39.1111 18.1841L45.8159 3.45397ZM54.7556 9.85397L43.2762 21.4349C42.3619 20.419 41.2444 19.5048 40.0254 18.7936L44.4952 12.2921C44.5968 12.0889 44.9016 12.0889 45.1048 12.1905L46.1206 13.1048L50.7936 6.60317C50.8952 6.4 51.2 6.4 51.4032 6.50159L54.7556 9.24444C54.8571 9.44762 54.8571 9.75238 54.7556 9.85397ZM60.8508 18.9968C61.054 18.8952 61.1556 18.5905 61.054 18.3873L58.9206 14.6286C58.819 14.4254 58.5143 14.3238 58.3111 14.527L51.7079 19.0984L50.9968 17.981C50.8952 17.7778 50.5905 17.6762 50.3873 17.8794L43.9873 22.3492C44.9016 23.4667 45.6127 24.6857 46.2222 26.0063L60.8508 18.9968ZM63.1873 24.8889L63.8984 29.1556C63.8984 29.3587 63.7968 29.6635 63.4921 29.6635L47.3397 31.1873C47.2381 29.7651 46.9333 28.3429 46.527 27.0222L54.146 24.8889C54.3492 24.7873 54.654 24.9905 54.654 25.1936L54.8571 26.5143L62.5778 24.4825C62.8825 24.4825 63.0857 24.6857 63.1873 24.8889ZM62.4762 40.6349C62.6794 40.7365 62.9841 40.5333 62.9841 40.3302L63.6952 36.0635C63.6952 35.8603 63.5936 35.5556 63.2889 35.5556L55.3651 34.8444L55.5683 33.5238C55.5683 33.3206 55.4667 33.0159 55.1619 33.0159L47.2381 32.4063C47.2381 33.8286 46.9333 35.2508 46.527 36.5714L62.4762 40.6349ZM58.3111 50.3873C58.2095 50.5905 57.9048 50.6921 57.7016 50.4889L44.2921 41.2444C45.1048 40.127 45.8159 38.9079 46.3238 37.5873L53.5365 40.8381C53.7397 40.9397 53.8413 41.2444 53.7397 41.4476L53.0286 42.6667L60.2413 46.1206C60.4444 46.2222 60.546 46.527 60.4444 46.7302L58.3111 50.3873ZM40.3302 44.9016L49.7778 58.2095C49.8794 58.4127 50.1841 58.4127 50.3873 58.3111L53.7397 55.5683C53.9429 55.3651 53.9429 55.1619 53.7397 54.9587L48.1524 49.2698L49.1683 48.4571C49.3714 48.254 49.3714 48.0508 49.1683 47.8476L43.581 42.2603C42.6667 43.2762 41.5492 44.1905 40.3302 44.9016ZM40.3302 62.9841C40.127 63.0857 39.8222 62.8825 39.8222 62.6794L35.5556 47.0349C36.9778 46.7302 38.2984 46.2222 39.5175 45.5111L42.8698 52.6222C42.9714 52.8254 42.8698 53.1302 42.6667 53.2317L41.4476 53.7397L44.8 60.9524C44.9016 61.1556 44.8 61.4603 44.5968 61.5619L40.3302 62.9841Z" fill="black"/>
</g>
<defs>
<clipPath id="clip0_4685_36394">
<rect width="64" height="64" fill="white"/>
</clipPath>
</defs>
</svg>
