<svg width="64" height="64" viewBox="0 0 64 64" fill="none" xmlns="http://www.w3.org/2000/svg">
<path fill-rule="evenodd" clip-rule="evenodd" d="M26.3773 23.2786C26.3476 23.2786 26.2902 23.2786 26.2605 23.2786C25.7679 23.2186 25.3625 22.7672 25.3625 22.2558C25.3328 21.7743 25.0716 10.5214 31.4195 7.96409C33.0139 7.33218 34.4936 7.45246 35.7398 8.38536C37.2748 9.49858 38.3766 11.725 39.0433 14.9745C39.5062 17.2612 39.5932 19.2468 39.5932 19.3372C39.6229 19.8185 39.2471 20.1797 38.7525 20.0894C38.26 20.0291 37.8545 19.578 37.8545 19.0965C37.7675 17.0505 37.1008 11.4242 34.8991 9.79937C34.2028 9.28794 33.3323 9.2277 32.2899 9.64897C26.84 11.8453 27.1012 22.4062 27.1012 22.5265C27.1012 22.9477 26.8124 23.2786 26.3773 23.2786Z" fill="#595961"/>
<path opacity="0.46" fill-rule="evenodd" clip-rule="evenodd" d="M35.4198 8.44541C34.2606 7.60287 32.8996 7.48259 31.42 8.05426C28.8404 9.10724 27.0147 11.8754 26.1166 16.0877C25.4499 19.1866 25.5369 21.9849 25.5369 22.1052C25.5369 22.2556 25.5943 22.4062 25.711 22.5265C25.8258 22.6467 25.9425 22.7371 26.0869 22.7371C26.1166 22.7371 26.1462 22.7371 26.1739 22.7371C26.4351 22.7371 26.6388 22.5265 26.6388 22.2556C26.6388 22.1353 26.3777 11.3939 31.972 9.13736C33.1015 8.68617 34.0866 8.74621 34.8996 9.348C37.2457 11.063 37.9419 16.87 38.029 18.9461C38.029 19.2469 38.2901 19.5479 38.6086 19.5778C38.8994 19.6079 39.1308 19.3973 39.1308 19.0965C39.1011 18.7354 38.7827 10.9126 35.4198 8.44541Z" fill="#B2B2C2"/>
<path opacity="0.46" fill-rule="evenodd" clip-rule="evenodd" d="M26.1159 22.376C26.0863 22.376 26.0863 22.376 26.0586 22.376C25.8845 22.3459 25.7381 22.1654 25.7104 21.9849C25.7104 21.8644 25.6234 19.1265 26.29 16.0274C27.1585 11.9055 28.9862 9.16743 31.5064 8.14437C32.9267 7.5727 34.2027 7.69318 35.3045 8.47548C38.5506 10.8523 38.8691 18.5549 38.8691 18.8858C38.8691 19.0663 38.7247 19.1866 38.5506 19.1567C38.3766 19.1265 38.2321 18.9761 38.2024 18.7655C38.2024 18.6751 37.884 11.1232 34.9563 8.95679C34.0859 8.32509 33.0138 8.23473 31.7972 8.71604C26.116 11.0931 26.3771 21.9849 26.3771 22.1051C26.4048 22.2555 26.29 22.376 26.1159 22.376Z" fill="#B2B2C2"/>
<path opacity="0.62" fill-rule="evenodd" clip-rule="evenodd" d="M28.4645 13.7706C28.6959 13.3194 28.9273 12.868 29.1311 12.3867C29.044 12.5371 28.4644 14.1017 26.6959 13.861C26.6662 13.861 27.7385 14.1919 28.4645 13.7706Z" fill="#595961"/>
<path opacity="0.62" fill-rule="evenodd" clip-rule="evenodd" d="M27.8248 15.6969C27.9989 15.2154 28.1729 14.704 28.2896 14.2227C28.2323 14.4032 27.9414 16.0278 26.0859 16.0278C26.0859 16.0278 27.1582 16.2385 27.8248 15.6969Z" fill="#595961"/>
<path opacity="0.62" fill-rule="evenodd" clip-rule="evenodd" d="M37.9982 11.8154C37.7668 11.2737 37.5056 10.7623 37.2444 10.2207C37.3315 10.4012 38.2019 12.1162 37.2168 13.3497C37.2168 13.3497 37.9705 12.7481 37.9982 11.8154Z" fill="#595961"/>
<path opacity="0.62" fill-rule="evenodd" clip-rule="evenodd" d="M36.4065 9.10751C35.9416 8.71636 35.4786 8.35533 35.0138 8.02441C35.1878 8.17481 36.7248 9.28803 36.6378 10.9731C36.6081 10.9731 36.8693 9.98017 36.4065 9.10751Z" fill="#595961"/>
<path opacity="0.62" fill-rule="evenodd" clip-rule="evenodd" d="M29.3046 12.1158C29.6528 11.7548 29.9415 11.3637 30.26 10.9424C30.1453 11.0627 29.1879 12.2964 27.4788 11.845C27.4788 11.845 28.4639 12.3867 29.3046 12.1158Z" fill="#595961"/>
<path opacity="0.62" fill-rule="evenodd" clip-rule="evenodd" d="M30.3766 10.7315C30.7821 10.4307 31.1579 10.1297 31.5358 9.79883C31.3914 9.88918 30.2025 10.8819 28.5508 10.1599C28.5508 10.1599 29.5062 10.8518 30.3766 10.7315Z" fill="#595961"/>
<path opacity="0.62" fill-rule="evenodd" clip-rule="evenodd" d="M31.9416 9.73872C32.4342 9.58832 32.8991 9.40781 33.362 9.22729C33.1879 9.28733 31.7101 9.82888 30.2601 8.68555C30.2898 8.68555 31.0436 9.58832 31.9416 9.73872Z" fill="#595961"/>
<path opacity="0.62" fill-rule="evenodd" clip-rule="evenodd" d="M33.3615 9.19771C33.767 9.25795 34.1725 9.28807 34.578 9.31819C34.4336 9.28807 33.1576 9.19771 32.4336 7.99414C32.4336 7.99414 32.7245 8.80656 33.3615 9.19771Z" fill="#595961"/>
<path opacity="0.62" fill-rule="evenodd" clip-rule="evenodd" d="M35.0435 9.8585C35.3323 10.1896 35.6527 10.5205 35.9989 10.8213C35.8842 10.701 34.8991 9.7081 35.1306 8.47461C35.1009 8.47461 34.7824 9.16655 35.0435 9.8585Z" fill="#595961"/>
<path opacity="0.74" fill-rule="evenodd" clip-rule="evenodd" d="M38.5506 18.7354C38.5506 18.4043 38.2322 10.7921 35.073 8.4755C34.4638 8.02411 33.7971 7.81348 33.1008 7.81348C32.5786 7.81348 32.0286 7.93375 31.449 8.17451C28.9269 9.16745 27.1585 11.8453 26.29 15.9371C25.6234 19.0061 25.7104 21.7441 25.7104 21.8644C25.7104 21.9548 25.7975 22.0449 25.8845 22.0449H25.9121C25.9992 22.0449 26.0586 21.9849 26.0586 21.8945C26.0586 21.7743 25.7678 10.7921 31.5934 8.44538C32.8693 7.93375 33.9712 8.02411 34.8989 8.71606C37.9117 10.9126 38.2321 18.585 38.2321 18.6752C38.2321 18.7655 38.3192 18.8557 38.4062 18.8557C38.4062 18.8557 38.4062 18.8557 38.4339 18.8557C38.4932 18.8858 38.5506 18.8256 38.5506 18.7354Z" fill="url(#paint0_linear_4685_46651)"/>
<path fill-rule="evenodd" clip-rule="evenodd" d="M39.043 14.9742C38.3764 11.7247 37.2746 9.52824 35.7395 8.3849C34.8988 7.78331 33.9988 7.51243 33.0137 7.57267C33.797 7.63271 34.521 7.90359 35.1877 8.3849C36.7247 9.49831 37.8266 11.7247 38.4932 14.9742C38.9561 17.2609 39.043 19.2466 39.043 19.3369C39.043 19.698 38.869 19.9688 38.5782 20.059C38.6375 20.0891 38.695 20.0891 38.7246 20.0891C39.2172 20.1494 39.593 19.8183 39.5653 19.3369C39.593 19.2466 39.5059 17.291 39.043 14.9742Z" fill="url(#paint1_linear_4685_46651)"/>
<path fill-rule="evenodd" clip-rule="evenodd" d="M31.7399 9.64907C26.2901 11.8454 26.5511 22.4063 26.5511 22.5265C26.5511 22.8876 26.377 23.1585 26.0862 23.2486C26.1456 23.2787 26.1734 23.2787 26.2327 23.2787C26.2604 23.2787 26.3197 23.2787 26.3474 23.2787C26.7826 23.2787 27.0713 22.9478 27.0713 22.5265C27.0713 22.4063 26.8123 11.8755 32.2601 9.67919C32.6379 9.52879 32.986 9.43843 33.3045 9.40831C32.8396 9.31815 32.3195 9.40831 31.7399 9.64907Z" fill="url(#paint2_linear_4685_46651)"/>
<path fill-rule="evenodd" clip-rule="evenodd" d="M39.9988 12.2668L15.4202 20.1497C15.4202 20.1497 14.3778 20.4507 14.1166 20.7816C13.8555 21.1125 13.7981 22.0452 13.7981 22.0452L10 52.434L38.5211 57.9701L40.7247 12.2367C40.4063 12.1765 40.0858 12.2367 39.9988 12.2668Z" fill="url(#paint3_linear_4685_46651)"/>
<path fill-rule="evenodd" clip-rule="evenodd" d="M48.4937 16.1778C48.4937 16.1778 48.464 15.937 48.3196 15.8468C48.2029 15.7565 48.0584 15.7565 48.0584 15.7565L44.029 15.4557L41.0736 12.4168C40.9569 12.3265 40.8402 12.2664 40.6958 12.2363L38.4941 57.9697L53.9415 54.5096L48.4937 16.1778Z" fill="url(#paint4_linear_4685_46651)"/>
<path fill-rule="evenodd" clip-rule="evenodd" d="M29.8553 37.6603C29.4201 37.0585 28.8998 36.517 28.3776 36.0355C27.8554 35.5541 27.3055 35.163 26.7536 34.802C26.3777 34.5612 26.0296 34.3205 25.7388 34.0797C25.45 33.8391 25.2185 33.5984 25.0444 33.3877C24.8703 33.147 24.7259 32.9364 24.6389 32.6958C24.5518 32.455 24.5221 32.2143 24.5221 31.9735C24.5221 31.6426 24.6092 31.3117 24.7259 31.0408C24.8407 30.7702 25.0444 30.5294 25.2462 30.3188C25.4796 30.1081 25.7388 29.9577 26.0592 29.8375C26.3777 29.717 26.7535 29.6569 27.159 29.6268C27.5942 29.5967 28.0294 29.6268 28.435 29.657C28.8405 29.6869 29.2183 29.7772 29.5941 29.8674C29.9423 29.9577 30.2904 30.078 30.5792 30.1985C30.87 30.3188 31.1588 30.4391 31.3626 30.5595L33.2755 24.6623C32.9867 24.5119 32.6386 24.3613 32.2607 24.2712C31.8552 24.1507 31.42 24.0606 30.9274 24.0003C30.4349 23.9403 29.9126 23.9102 29.3627 23.9102C28.8128 23.9102 28.2332 23.9403 27.624 24.0304C26.3204 24.211 25.1592 24.572 24.1167 25.1135C23.1316 25.6252 22.2611 26.287 21.5371 27.0994C20.8408 27.8817 20.2909 28.7843 19.8853 29.8073C19.5075 30.8003 19.2761 31.9135 19.2187 33.1169C19.1891 33.8391 19.2464 34.501 19.4205 35.1028C19.5649 35.7045 19.7983 36.2762 20.1168 36.8178C20.4056 37.3593 20.7834 37.8408 21.1889 38.292C21.5945 38.7434 22.087 39.1647 22.5796 39.5558C22.9851 39.8566 23.3333 40.1574 23.6241 40.4283C23.9129 40.6992 24.1463 40.9698 24.3184 41.2708C24.4925 41.5415 24.6092 41.8124 24.6962 42.1132C24.7833 42.384 24.8129 42.6848 24.7833 42.9858C24.7833 43.2866 24.6963 43.5874 24.5796 43.8282C24.4649 44.0689 24.3184 44.3097 24.087 44.4902C23.8852 44.6707 23.6241 44.791 23.3333 44.8512C23.0445 44.9113 22.6964 44.9414 22.3185 44.8813C21.8853 44.8211 21.4501 44.7008 21.0445 44.5201C20.639 44.3697 20.2316 44.1591 19.8558 43.9484C19.4799 43.738 19.1318 43.4972 18.841 43.2866C18.5225 43.076 18.2613 42.8352 18.0596 42.6547L16.7539 47.1379C16.9577 47.4387 17.2465 47.7096 17.565 47.9802C17.8855 48.2511 18.2614 48.5218 18.6966 48.7927C19.1318 49.0334 19.5946 49.274 20.0872 49.4846C20.5798 49.6952 21.1316 49.8758 21.6815 50.0264H21.7112H21.7389H21.7686H21.7983C22.9852 50.297 24.1167 50.3573 25.1888 50.2069C26.2907 50.0563 27.3054 49.6651 28.1738 49.0635C29.0719 48.4316 29.7979 47.5891 30.3478 46.4759C30.8997 45.3627 31.2182 44.0087 31.2755 42.4742C31.3052 41.5114 31.1886 40.669 30.9274 39.8867C30.6663 38.9841 30.2905 38.292 29.8553 37.6603Z" fill="url(#paint5_linear_4685_46651)"/>
<path opacity="0.226763" fill-rule="evenodd" clip-rule="evenodd" d="M16.9413 47.383C16.874 47.3033 16.8106 47.2218 16.7533 47.1381L18.0589 42.6549C18.0767 42.6717 18.0965 42.689 18.1163 42.7067C18.3101 42.8799 18.5515 43.0957 18.8403 43.2868C19.1311 43.4975 19.4793 43.7382 19.8551 43.9489C20.231 44.1593 20.6384 44.3699 21.0439 44.5205C21.4494 44.701 21.8847 44.8213 22.3179 44.8816C22.6957 44.9416 23.0439 44.9117 23.3327 44.8514C23.6235 44.7912 23.8846 44.6709 24.0864 44.4904C24.3178 44.3099 24.4642 44.0691 24.579 43.8284C24.6957 43.5876 24.7826 43.2868 24.7826 42.986C24.8123 42.685 24.7826 42.3842 24.6956 42.1134C24.6086 41.8126 24.4919 41.5417 24.3178 41.271C24.1536 40.985 23.936 40.7263 23.665 40.4688C23.8074 40.6297 23.9281 40.7948 24.029 40.97C24.2031 41.2409 24.3178 41.5116 24.4049 41.8126C24.4919 42.0833 24.5216 42.3842 24.4919 42.685C24.4919 42.986 24.4049 43.2868 24.2902 43.5276C24.1734 43.7683 24.029 44.0089 23.7976 44.1894C23.5938 44.3699 23.3327 44.4904 23.0439 44.5504C22.7531 44.6107 22.405 44.6408 22.0291 44.5806C21.5939 44.5205 21.1587 44.4 20.7532 44.2195C20.3476 44.0691 19.9421 43.8585 19.5643 43.6479C19.1884 43.4372 18.8403 43.1967 18.5515 42.986C18.2607 42.7949 18.0194 42.5791 17.8255 42.4059C17.8058 42.3882 17.7879 42.3709 17.7681 42.3541L16.4645 46.8371C16.5931 47.0287 16.7573 47.208 16.9413 47.383ZM21.2121 38.3196C21.1033 38.2119 20.9985 38.1026 20.8976 37.9914C20.4921 37.54 20.1162 37.0587 19.8254 36.5172C19.5069 35.9754 19.2755 35.4038 19.1311 34.8022C18.957 34.2004 18.8976 33.5384 18.9273 32.8163C18.9846 31.6127 19.2181 30.4995 19.594 29.5066C19.9995 28.4837 20.5514 27.5811 21.2458 26.7988C21.9718 25.9864 22.8401 25.3244 23.8252 24.8129C24.8697 24.2714 26.0289 23.9104 27.3325 23.7298C27.9418 23.6395 28.5214 23.6094 29.0713 23.6094C29.6232 23.6094 30.1455 23.6395 30.638 23.6997C31.1306 23.76 31.5658 23.8501 31.9713 23.9706C32.3472 24.0608 32.6953 24.2112 32.9861 24.3616L32.9406 24.5023C32.7309 24.4112 32.5015 24.3291 32.2601 24.2714C31.8546 24.1511 31.4194 24.0608 30.9268 24.0005C30.4343 23.9405 29.912 23.9104 29.3621 23.9104C28.8121 23.9104 28.2326 23.9405 27.6233 24.0306C26.3197 24.2112 25.1585 24.5722 24.1161 25.1139C23.1309 25.6254 22.2605 26.2872 21.5365 27.0996C20.8402 27.8819 20.2902 28.7845 19.8847 29.8076C19.5069 30.8005 19.2755 31.9137 19.2181 33.1171C19.1885 33.8394 19.2458 34.5012 19.4199 35.103C19.5643 35.7048 19.7977 36.2764 20.1162 36.818C20.405 37.3595 20.7828 37.841 21.1883 38.2922C21.1962 38.3013 21.2042 38.3105 21.2121 38.3196ZM25.1486 33.5112C25.3068 33.6901 25.5047 33.885 25.7382 34.0799C26.0289 34.3207 26.3771 34.5614 26.7529 34.8022C27.3049 35.1632 27.8547 35.5544 28.377 36.0357C28.5293 36.1758 28.6796 36.3209 28.83 36.4713C28.5886 36.2118 28.3373 35.9664 28.0861 35.7349C27.5659 35.2534 27.0141 34.8622 26.4641 34.5012C26.0863 34.2604 25.7382 34.0199 25.4494 33.7791C25.3406 33.6893 25.2416 33.5996 25.1486 33.5112Z" fill="black"/>
<path opacity="0.41" fill-rule="evenodd" clip-rule="evenodd" d="M45.0137 49.4551L44.0287 15.4558L43.8545 15.2753L44.3195 48.9736C44.3195 48.9736 40.2326 55.4123 39.6233 55.2318C38.7252 54.9612 41.3918 12.7479 41.3918 12.7479L41.101 12.4471C40.9863 12.3568 40.8399 12.2967 40.7252 12.2666L38.5512 57.3681L38.5215 58L39.2751 57.0071L45.0137 49.4551Z" fill="url(#paint6_linear_4685_46651)"/>
<path fill-rule="evenodd" clip-rule="evenodd" d="M33.9129 14.2229C33.5667 15.6369 33.1316 16.9607 32.8131 17.7732C32.6094 18.2547 32.8408 18.7059 33.276 18.7661C33.7409 18.8263 34.2611 18.4952 34.4352 18.0139C34.4649 17.9236 35.2462 15.968 35.7407 13.6512V13.6211L33.9129 14.2229Z" fill="url(#paint7_linear_4685_46651)"/>
<path fill-rule="evenodd" clip-rule="evenodd" d="M20.8403 18.4343C20.4348 19.3369 20.0293 20.1192 19.7385 20.6608C19.4794 21.1122 19.6237 21.5935 20.0589 21.7137C20.4922 21.8643 21.0717 21.5935 21.3328 21.1421C21.3625 21.082 22.2033 19.6078 22.957 17.7422L20.8403 18.4343Z" fill="url(#paint8_linear_4685_46651)"/>
<path opacity="0.32" fill-rule="evenodd" clip-rule="evenodd" d="M38.5215 57.9701L45.0137 49.4551L54.0005 54.5099L38.5215 57.9701Z" fill="url(#paint9_linear_4685_46651)"/>
<path opacity="0.19" fill-rule="evenodd" clip-rule="evenodd" d="M38.5215 57.9701L44.9564 49.4551L54.0005 54.5099L38.5215 57.9701Z" fill="url(#paint10_linear_4685_46651)"/>
<path opacity="0.19" fill-rule="evenodd" clip-rule="evenodd" d="M38.5215 57.9701L44.9564 49.4551L54.0005 54.5099L38.5215 57.9701Z" fill="url(#paint11_linear_4685_46651)"/>
<path opacity="0.6" fill-rule="evenodd" clip-rule="evenodd" d="M32.2034 34.1404C35.5663 38.8641 37.8272 43.979 38.9567 48.9435L40.7253 12.2064C40.4068 12.1463 40.0863 12.2064 39.9993 12.2365L15.4207 20.1497C15.4207 20.1497 15.1892 20.2097 14.8984 20.3302C21.1316 22.5566 27.3629 27.3406 32.2034 34.1404Z" fill="url(#paint12_linear_4685_46651)"/>
<path fill-rule="evenodd" clip-rule="evenodd" d="M48.3456 15.877C48.492 15.9974 48.4921 16.178 48.4921 16.178L53.8825 54.4795L45.0124 49.4248L44.0273 15.4258L47.9995 15.7266C48.0272 15.7567 48.2012 15.7567 48.3456 15.877Z" fill="url(#paint13_linear_4685_46651)"/>
<path fill-rule="evenodd" clip-rule="evenodd" d="M47.7103 15.9676C47.7103 15.9676 47.8844 15.9676 48.0288 16.118C48.1732 16.2385 48.2028 16.419 48.2028 16.419L53.5082 54.2995L53.9137 54.5402L48.5213 16.2084C48.5213 16.2084 48.4936 16.0279 48.3769 15.9076C48.2325 15.7871 48.0288 15.7871 48.0288 15.7871L44.0586 15.4863L47.7103 15.9676Z" fill="url(#paint14_linear_4685_46651)"/>
<path fill-rule="evenodd" clip-rule="evenodd" d="M10 52.4326L38.5211 57.9688L39.9136 26.6172L13.5468 27.3667L10 52.4326Z" fill="url(#paint15_linear_4685_46651)"/>
<path opacity="0.3" fill-rule="evenodd" clip-rule="evenodd" d="M19.363 20.5881C19.1038 21.3194 19.359 22.0878 19.9366 22.3047C20.5122 22.5215 21.1888 22.1045 21.4499 21.3734C21.709 20.6423 21.4519 19.8737 20.8763 19.657C20.3006 19.4401 19.6221 19.857 19.363 20.5881Z" fill="white"/>
<path opacity="0.89" fill-rule="evenodd" clip-rule="evenodd" d="M19.331 20.2407C19.0719 20.9718 19.329 21.7403 19.9047 21.9571C20.4803 22.174 21.1588 21.7571 21.418 21.0259C21.6771 20.2946 21.422 19.5261 20.8444 19.3093C20.2687 19.0924 19.5922 19.5094 19.331 20.2407Z" fill="black"/>
<path fill-rule="evenodd" clip-rule="evenodd" d="M44.0584 15.4557L41.101 12.4168C40.9863 12.3265 40.8399 12.2664 40.7252 12.2363L38.5215 57.9697L45.0434 49.4247L44.0584 15.4557Z" fill="url(#paint16_linear_4685_46651)"/>
<path fill-rule="evenodd" clip-rule="evenodd" d="M39.9982 12.2665L15.4197 20.1493C15.4197 20.1493 14.3772 20.4503 14.1161 20.7813C14.0864 20.8114 14.0863 20.8415 14.0586 20.8716L38.839 13.7708C39.0427 13.7106 39.5353 13.5301 39.4779 15.0043L37.9705 57.9095L38.4928 57.9999L40.6945 12.2665C40.4057 12.1761 40.0852 12.2364 39.9982 12.2665Z" fill="url(#paint17_linear_4685_46651)"/>
<path fill-rule="evenodd" clip-rule="evenodd" d="M39.9982 12.2665L15.4197 20.1493C15.4197 20.1493 14.3772 20.4503 14.1161 20.7813C14.0864 20.8114 14.0863 20.8415 14.0586 20.8716L19.7972 19.2166L39.5353 12.8683C39.6223 12.8381 39.9408 12.7779 40.2593 12.8381L38.0853 57.9095L38.4928 57.9999L40.6945 12.2665C40.4057 12.1761 40.0852 12.2364 39.9982 12.2665Z" fill="url(#paint18_linear_4685_46651)"/>
<path opacity="0.32" fill-rule="evenodd" clip-rule="evenodd" d="M46.3197 50.177L45.0141 49.4248L38.4941 57.9697L38.8403 57.8793C38.8403 57.8793 44.5808 50.2071 45.1011 49.9664C45.4789 49.816 46.3197 50.177 46.3197 50.177Z" fill="url(#paint19_linear_4685_46651)"/>
<path opacity="0.57" fill-rule="evenodd" clip-rule="evenodd" d="M38.5215 57.9697L45.0434 49.4248C45.0138 49.4549 40.8992 54.1184 38.5215 57.9697Z" fill="url(#paint20_linear_4685_46651)"/>
<path opacity="0.46" fill-rule="evenodd" clip-rule="evenodd" d="M54.0007 54.5099L45.0436 49.4551C45.0139 49.4551 46.0584 49.6356 54.0007 54.5099Z" fill="url(#paint21_linear_4685_46651)"/>
<path opacity="0.3" fill-rule="evenodd" clip-rule="evenodd" d="M32.6138 17.5881C32.3527 18.3194 32.6099 19.0879 33.1855 19.3048C33.7631 19.5218 34.4397 19.1048 34.6988 18.3737C34.96 17.6424 34.7028 16.8739 34.1272 16.6569C33.5515 16.4402 32.873 16.8569 32.6138 17.5881Z" fill="white"/>
<path opacity="0.89" fill-rule="evenodd" clip-rule="evenodd" d="M32.5814 17.2424C32.3222 17.9737 32.5795 18.7423 33.1551 18.9592C33.7308 19.1759 34.4092 18.7592 34.6683 18.0279C34.9275 17.2968 34.6723 16.5282 34.0966 16.3113C33.519 16.0944 32.8425 16.5113 32.5814 17.2424Z" fill="black"/>
<path fill-rule="evenodd" clip-rule="evenodd" d="M20.3767 21.7142C20.347 21.7142 20.2896 21.7142 20.2599 21.7142C19.797 21.6541 19.4786 21.2028 19.536 20.6913C19.5933 20.2098 21.245 8.95698 28.0281 6.39963C29.7372 5.76773 31.1872 5.88801 32.289 6.82091C33.6223 7.93412 34.3463 10.1606 34.463 13.41C34.5501 15.6967 34.289 17.6824 34.289 17.7728C34.2317 18.2541 33.7965 18.6153 33.3316 18.5249C32.8687 18.4647 32.5205 18.0135 32.6075 17.532C32.8687 15.4861 33.1575 9.85976 31.2169 8.23492C30.6076 7.72349 29.767 7.66325 28.6375 8.08452C22.8118 10.2808 21.2747 20.8417 21.2747 20.9319C21.158 21.3833 20.8119 21.7142 20.3767 21.7142Z" fill="#595961"/>
<path opacity="0.46" fill-rule="evenodd" clip-rule="evenodd" d="M31.9407 6.88078C30.9259 6.03843 29.5927 5.91815 27.9983 6.48982C25.2447 7.5428 22.9262 10.3108 21.3318 14.493C20.1449 17.5921 19.7375 20.3902 19.7375 20.5106C19.7098 20.661 19.7672 20.8114 19.8542 20.9319C19.9413 21.0522 20.0579 21.1425 20.2023 21.1425C20.23 21.1425 20.2597 21.1425 20.2894 21.1425C20.5505 21.1425 20.7819 20.9319 20.8116 20.661C20.8393 20.5408 22.3764 9.79935 28.3761 7.5428C29.5927 7.09141 30.5777 7.15166 31.274 7.75344C33.3313 9.46844 33.0425 15.2753 32.7814 17.3513C32.7517 17.6523 32.9555 17.9531 33.2443 17.9832C33.5351 18.0133 33.8239 17.8027 33.8536 17.5019C33.8832 17.1708 34.8981 9.34816 31.9407 6.88078Z" fill="#B2B2C2"/>
<path opacity="0.81" fill-rule="evenodd" clip-rule="evenodd" d="M20.2607 20.8116C20.2311 20.8116 20.2311 20.8116 20.2034 20.8116C20.0293 20.7815 19.9126 20.6009 19.9422 20.4204C19.9719 20.2999 20.3478 17.5621 21.5367 14.463C23.1311 10.341 25.392 7.60298 28.0863 6.57992C29.6233 6.00825 30.8696 6.12873 31.825 6.91103C34.6657 9.28786 33.6805 16.9904 33.6232 17.3213C33.5935 17.5018 33.4491 17.6221 33.2454 17.5922C33.0733 17.5621 32.9566 17.4117 32.9566 17.201C32.9566 17.1107 33.9417 9.55873 31.3918 7.39234C30.6381 6.82067 29.5937 6.76063 28.3198 7.24194C22.2033 9.55873 20.6089 20.4204 20.6089 20.5407C20.5793 20.6911 20.4348 20.8116 20.2607 20.8116Z" fill="#B2B2C2"/>
<path opacity="0.42" fill-rule="evenodd" clip-rule="evenodd" d="M24.0859 12.2062C24.4044 11.755 24.6951 11.3036 24.9839 10.8223C24.8692 10.9727 24.0285 12.5373 22.2897 12.2965C22.26 12.2965 23.2749 12.6274 24.0859 12.2062Z" fill="#595961"/>
<path opacity="0.42" fill-rule="evenodd" clip-rule="evenodd" d="M23.1006 14.1315C23.3617 13.65 23.6228 13.1385 23.8245 12.6572C23.7375 12.8377 23.1579 14.4624 21.332 14.4624C21.332 14.4624 22.3469 14.673 23.1006 14.1315Z" fill="#595961"/>
<path opacity="0.42" fill-rule="evenodd" clip-rule="evenodd" d="M22.3481 16.1185C22.5795 15.6068 22.7537 15.0954 22.9278 14.584C22.8407 14.7645 22.5222 16.4193 20.6094 16.6299C20.6094 16.5998 21.6518 16.7203 22.3481 16.1185Z" fill="#595961"/>
<path opacity="0.62" fill-rule="evenodd" clip-rule="evenodd" d="M33.9409 10.251C33.7965 9.70922 33.652 9.1978 33.4483 8.65625C33.5056 8.83677 34.0853 10.5518 32.8984 11.7853C32.8984 11.7853 33.7668 11.1837 33.9409 10.251Z" fill="#595961"/>
<path opacity="0.62" fill-rule="evenodd" clip-rule="evenodd" d="M32.8123 7.54208C32.4068 7.15093 31.9993 6.7899 31.5938 6.45898C31.7401 6.60938 33.1011 7.7226 32.7253 9.40748C32.6956 9.40748 33.1308 8.41454 32.8123 7.54208Z" fill="#595961"/>
<path opacity="0.62" fill-rule="evenodd" clip-rule="evenodd" d="M34.2313 13.0182C34.2016 12.4767 34.1147 11.905 34.0276 11.3633C34.0276 11.5739 34.3184 13.3492 32.9258 14.312C32.9258 14.312 33.8832 13.8907 34.2313 13.0182Z" fill="#595961"/>
<path opacity="0.62" fill-rule="evenodd" clip-rule="evenodd" d="M34.3758 15.8471C34.4055 15.3056 34.4055 14.7339 34.3758 14.1924C34.3758 14.403 34.4054 16.1783 32.9258 16.9905C32.9258 16.9606 33.9406 16.6596 34.3758 15.8471Z" fill="#595961"/>
<path opacity="0.42" fill-rule="evenodd" clip-rule="evenodd" d="M21.6814 18.3135C21.8555 17.7719 21.9722 17.2304 22.0869 16.7188C22.0296 16.8993 21.7685 18.6143 20 19.0355C20.0297 19.0355 21.0721 19.0054 21.6814 18.3135Z" fill="#595961"/>
<path opacity="0.42" fill-rule="evenodd" clip-rule="evenodd" d="M25.1888 10.5504C25.5943 10.1894 25.9721 9.79822 26.3202 9.37695C26.1738 9.49723 25.0147 10.7309 23.3926 10.2795C23.4203 10.2795 24.3184 10.8213 25.1888 10.5504Z" fill="#595961"/>
<path opacity="0.42" fill-rule="evenodd" clip-rule="evenodd" d="M26.4924 9.16708C26.9572 8.86628 27.3924 8.56529 27.8257 8.23438C27.6536 8.32473 26.3202 9.31747 24.7832 8.59541C24.7832 8.59541 25.5943 9.28736 26.4924 9.16708Z" fill="#595961"/>
<path opacity="0.62" fill-rule="evenodd" clip-rule="evenodd" d="M28.2612 8.17427C28.7834 8.02367 29.276 7.84316 29.7686 7.66264C29.5945 7.72288 28.0298 8.26443 26.7539 7.12109C26.7539 7.12109 27.3631 8.02367 28.2612 8.17427Z" fill="#595961"/>
<path opacity="0.62" fill-rule="evenodd" clip-rule="evenodd" d="M29.7379 7.63325C30.1454 7.69349 30.551 7.72362 30.9565 7.75374C30.8121 7.72362 29.5658 7.63326 29.0139 6.42969C29.0436 6.42969 29.188 7.2421 29.7379 7.63325Z" fill="#595961"/>
<path opacity="0.62" fill-rule="evenodd" clip-rule="evenodd" d="M31.3051 8.29424C31.5662 8.62516 31.8254 8.95607 32.0865 9.25706C31.9995 9.13659 31.1884 8.14385 31.5939 6.91016C31.6236 6.91016 31.1884 7.6023 31.3051 8.29424Z" fill="#595961"/>
<path fill-rule="evenodd" clip-rule="evenodd" d="M33.3038 17.1707C33.3315 16.8398 34.3187 9.22764 31.5651 6.91085C31.0429 6.45966 30.4059 6.24902 29.7096 6.24902C29.1874 6.24902 28.6078 6.3693 27.9985 6.61005C25.332 7.60299 23.1006 10.2808 21.5359 14.3727C20.347 17.4416 19.9711 20.1797 19.9414 20.3C19.9414 20.3901 19.9989 20.4805 20.0859 20.4805H20.1155C20.2025 20.4805 20.2599 20.4202 20.2599 20.3301C20.2896 20.2096 21.8543 9.22764 28.0855 6.88073C29.4187 6.3693 30.5503 6.45966 31.3613 7.1516C33.9982 9.34792 33.0131 17.0204 32.9855 17.1107C32.9855 17.2009 33.0428 17.2912 33.1299 17.2912C33.1299 17.2912 33.1298 17.2912 33.1575 17.2912C33.2445 17.3213 33.3038 17.2611 33.3038 17.1707Z" fill="url(#paint22_linear_4685_46651)"/>
<path fill-rule="evenodd" clip-rule="evenodd" d="M34.4643 13.4098C34.3476 10.1603 33.6236 7.96378 32.2904 6.82045C31.5664 6.21886 30.6961 5.94798 29.7109 6.00822C30.4646 6.06826 31.1589 6.33914 31.7405 6.82045C33.0738 7.93386 33.7977 10.1603 33.9125 13.4098C33.9995 15.6964 33.7404 17.6821 33.7404 17.7725C33.6811 18.1335 33.4496 18.4044 33.1588 18.4945C33.2182 18.5247 33.2458 18.5247 33.3052 18.5247C33.768 18.5849 34.2033 18.2538 34.2607 17.7725C34.2903 17.6821 34.5514 15.7266 34.4643 13.4098Z" fill="url(#paint23_linear_4685_46651)"/>
<path fill-rule="evenodd" clip-rule="evenodd" d="M28.0595 8.08427C22.2338 10.2806 20.6968 20.8415 20.6968 20.9618C20.6395 21.3228 20.406 21.5937 20.1172 21.6838C20.1746 21.7139 20.2042 21.7139 20.2616 21.7139C20.2913 21.7139 20.3487 21.7139 20.3783 21.7139C20.8135 21.7139 21.1597 21.383 21.219 20.9618C21.2467 20.8415 22.7541 10.3107 28.5798 8.11419C28.9873 7.9638 29.3335 7.87364 29.6539 7.84352C29.2188 7.78328 28.6668 7.87363 28.0595 8.08427Z" fill="url(#paint24_linear_4685_46651)"/>
<defs>
<linearGradient id="paint0_linear_4685_46651" x1="27.2217" y1="7.88139" x2="26.3127" y2="20.2577" gradientUnits="userSpaceOnUse">
<stop stop-color="white" stop-opacity="0.65"/>
<stop offset="1" stop-color="white" stop-opacity="0.01"/>
</linearGradient>
<linearGradient id="paint1_linear_4685_46651" x1="33.8643" y1="14.9652" x2="40.2643" y2="20.5708" gradientUnits="userSpaceOnUse">
<stop stop-opacity="0.01"/>
<stop offset="1" stop-opacity="0.4"/>
</linearGradient>
<linearGradient id="paint2_linear_4685_46651" x1="31.2987" y1="21.4503" x2="38.0729" y2="15.1406" gradientUnits="userSpaceOnUse">
<stop stop-opacity="0.01"/>
<stop offset="1" stop-opacity="0.4"/>
</linearGradient>
<linearGradient id="paint3_linear_4685_46651" x1="22.676" y1="3.03727" x2="-3.63563" y2="33.3541" gradientUnits="userSpaceOnUse">
<stop stop-color="#B8D26E"/>
<stop offset="1" stop-color="#7FB525"/>
</linearGradient>
<linearGradient id="paint4_linear_4685_46651" x1="58.6692" y1="10.6268" x2="44.2288" y2="10.895" gradientUnits="userSpaceOnUse">
<stop stop-color="#B4E034"/>
<stop offset="1" stop-color="#60A927"/>
</linearGradient>
<linearGradient id="paint5_linear_4685_46651" x1="15.7173" y1="30.842" x2="3.87816" y2="59.6728" gradientUnits="userSpaceOnUse">
<stop stop-color="white"/>
<stop offset="1" stop-color="#CECEEB"/>
</linearGradient>
<linearGradient id="paint6_linear_4685_46651" x1="32.6919" y1="101.843" x2="51.4427" y2="101.805" gradientUnits="userSpaceOnUse">
<stop stop-color="#1D1D1B" stop-opacity="0.5"/>
<stop offset="0.038033" stop-color="#1D1D1B" stop-opacity="0.4837"/>
<stop offset="0.4243" stop-color="#1D1D1B" stop-opacity="0.3185"/>
<stop offset="1" stop-color="#1D1D1B" stop-opacity="0.01"/>
</linearGradient>
<linearGradient id="paint7_linear_4685_46651" x1="34.8704" y1="11.6018" x2="31.7596" y2="13.276" gradientUnits="userSpaceOnUse">
<stop stop-opacity="0.01"/>
<stop offset="1" stop-opacity="0.4"/>
</linearGradient>
<linearGradient id="paint8_linear_4685_46651" x1="21.8274" y1="16.5668" x2="19.6407" y2="18.446" gradientUnits="userSpaceOnUse">
<stop stop-opacity="0.01"/>
<stop offset="1" stop-opacity="0.4"/>
</linearGradient>
<linearGradient id="paint9_linear_4685_46651" x1="43.1583" y1="54.5324" x2="43.3797" y2="57.4507" gradientUnits="userSpaceOnUse">
<stop stop-opacity="0.01"/>
<stop offset="1" stop-opacity="0.4"/>
</linearGradient>
<linearGradient id="paint10_linear_4685_46651" x1="37.9894" y1="50.26" x2="38.5026" y2="57.8476" gradientUnits="userSpaceOnUse">
<stop stop-color="white" stop-opacity="0.5"/>
<stop offset="0.0896271" stop-color="white" stop-opacity="0.4552"/>
<stop offset="1" stop-color="white" stop-opacity="0.01"/>
</linearGradient>
<linearGradient id="paint11_linear_4685_46651" x1="37.0023" y1="51.4402" x2="37.9153" y2="59.5453" gradientUnits="userSpaceOnUse">
<stop stop-opacity="0.01"/>
<stop offset="1" stop-opacity="0.4"/>
</linearGradient>
<linearGradient id="paint12_linear_4685_46651" x1="33.4199" y1="4.80774" x2="10.0041" y2="18.3505" gradientUnits="userSpaceOnUse">
<stop stop-color="white" stop-opacity="0.5"/>
<stop offset="1" stop-color="white" stop-opacity="0.01"/>
</linearGradient>
<linearGradient id="paint13_linear_4685_46651" x1="37.9366" y1="75.5869" x2="58.6043" y2="75.6287" gradientUnits="userSpaceOnUse">
<stop stop-color="#1D1D1B" stop-opacity="0.5"/>
<stop offset="0.0896271" stop-color="#1D1D1B" stop-opacity="0.4552"/>
<stop offset="1" stop-color="#1D1D1B" stop-opacity="0.01"/>
</linearGradient>
<linearGradient id="paint14_linear_4685_46651" x1="52.7387" y1="14.3461" x2="49.8028" y2="15.0655" gradientUnits="userSpaceOnUse">
<stop stop-color="white" stop-opacity="0.4"/>
<stop offset="1" stop-color="white" stop-opacity="0.01"/>
</linearGradient>
<linearGradient id="paint15_linear_4685_46651" x1="26.3969" y1="58.3036" x2="27.9236" y2="50.9434" gradientUnits="userSpaceOnUse">
<stop stop-color="#1D1D1B" stop-opacity="0.5"/>
<stop offset="0.0896271" stop-color="#1D1D1B" stop-opacity="0.4552"/>
<stop offset="1" stop-color="#1D1D1B" stop-opacity="0.01"/>
</linearGradient>
<linearGradient id="paint16_linear_4685_46651" x1="35.2239" y1="100.906" x2="54.0421" y2="100.923" gradientUnits="userSpaceOnUse">
<stop stop-color="#1D1D1B" stop-opacity="0.5"/>
<stop offset="1" stop-color="#1D1D1B" stop-opacity="0.01"/>
</linearGradient>
<linearGradient id="paint17_linear_4685_46651" x1="18.0268" y1="9.61503" x2="8.90003" y2="44.6798" gradientUnits="userSpaceOnUse">
<stop stop-color="white" stop-opacity="0.5"/>
<stop offset="1" stop-color="white" stop-opacity="0.01"/>
</linearGradient>
<linearGradient id="paint18_linear_4685_46651" x1="18.0268" y1="9.61503" x2="8.90003" y2="44.6798" gradientUnits="userSpaceOnUse">
<stop stop-color="white" stop-opacity="0.5"/>
<stop offset="1" stop-color="white" stop-opacity="0.01"/>
</linearGradient>
<linearGradient id="paint19_linear_4685_46651" x1="40.1775" y1="46.3724" x2="32.9637" y2="56.3013" gradientUnits="userSpaceOnUse">
<stop stop-color="white" stop-opacity="0.5"/>
<stop offset="0.0896271" stop-color="white" stop-opacity="0.4552"/>
<stop offset="1" stop-color="white" stop-opacity="0.01"/>
</linearGradient>
<linearGradient id="paint20_linear_4685_46651" x1="42.3532" y1="48.6551" x2="41.6389" y2="50.2562" gradientUnits="userSpaceOnUse">
<stop stop-opacity="0.01"/>
<stop offset="1" stop-opacity="0.4"/>
</linearGradient>
<linearGradient id="paint21_linear_4685_46651" x1="49.4371" y1="50.7724" x2="49.4018" y2="51.2028" gradientUnits="userSpaceOnUse">
<stop stop-opacity="0.01"/>
<stop offset="1" stop-opacity="0.4"/>
</linearGradient>
<linearGradient id="paint22_linear_4685_46651" x1="23.4586" y1="5.2362" x2="20.34" y2="17.5562" gradientUnits="userSpaceOnUse">
<stop stop-color="white" stop-opacity="0.65"/>
<stop offset="1" stop-color="white" stop-opacity="0.01"/>
</linearGradient>
<linearGradient id="paint23_linear_4685_46651" x1="30.4389" y1="12.343" x2="35.8638" y2="17.8584" gradientUnits="userSpaceOnUse">
<stop stop-opacity="0.01"/>
<stop offset="1" stop-opacity="0.4"/>
</linearGradient>
<linearGradient id="paint24_linear_4685_46651" x1="26.9715" y1="20.4651" x2="34.4669" y2="12.7673" gradientUnits="userSpaceOnUse">
<stop stop-opacity="0.01"/>
<stop offset="1" stop-opacity="0.4"/>
</linearGradient>
</defs>
</svg>
