<svg width="80" height="80" viewBox="0 0 80 80" fill="none" xmlns="http://www.w3.org/2000/svg">
<path d="M47.3878 47.4047C42.6387 49.1918 37.3169 49.1951 32.5677 47.4058C30.7784 42.6619 30.7779 37.3411 32.565 32.5964C37.313 30.8063 42.64 30.806 47.3881 32.5962C49.1767 37.3394 49.1759 42.6614 47.3878 47.4047ZM74.5134 34.1668H54.07L68.5248 19.7203C66.2563 16.5356 63.4556 13.7381 60.269 11.4709L45.8131 25.9175V5.4873C41.955 4.8387 37.9983 4.83969 34.1402 5.4873V25.9175L19.6843 11.4709C16.4985 13.7366 13.6969 16.538 11.4282 19.7203L25.8852 34.1668H5.44208C4.93745 38.1381 4.7735 41.8702 5.44208 45.8333H25.8855L11.4285 60.2798C13.7027 63.4692 16.4928 66.2575 19.6843 68.5302L34.1402 54.0826V74.5139C37.9987 75.16 41.9543 75.1604 45.8129 74.5139V54.0826L60.2701 68.5302C63.4581 66.2608 66.2539 63.4656 68.5248 60.2798L54.0678 45.8333H74.5134C75.1622 41.981 75.1622 38.0191 74.5134 34.1668Z" fill="#FF4A00"/>
</svg>
